<?xml version="1.0" encoding="utf-8"?>
<!-- Generator: Adobe Illustrator 23.0.1, SVG Export Plug-In . SVG Version: 6.00 Build 0)  -->
<svg version="1.1" id="Layer_1" xmlns="http://www.w3.org/2000/svg" xmlns:xlink="http://www.w3.org/1999/xlink" x="0px" y="0px"
	 viewBox="0 0 100 72.6" style="enable-background:new 0 0 100 72.6;" xml:space="preserve">
<style type="text/css">
	.st0{fill:#A60E18;}
</style>
<path class="st0" d="M20.9,72.6c-3.7,0-6.9-1.3-9.5-3.9c-2.6-2.6-3.9-5.8-3.9-9.5H6.8c-1.9,0-3.5-0.7-4.8-2c-1.3-1.3-2-2.9-2-4.8
	V6.8C0,5,0.7,3.4,2,2c1.4-1.4,3-2,4.8-2h59c1.9,0,3.5,0.7,4.8,2c1.3,1.3,2,2.9,2,4.8V19h10.2c0.6,0,1.1,0.1,1.5,0.3s0.9,0.6,1.2,1
	l13.8,18.3c0.2,0.3,0.4,0.6,0.5,0.9c0.1,0.3,0.2,0.7,0.2,1.1v15.1c0,1-0.3,1.8-1,2.4c-0.7,0.7-1.5,1-2.4,1h-4.7c0,3.8-1.3,7-3.9,9.5
	c-2.6,2.6-5.8,3.9-9.5,3.9s-6.9-1.3-9.5-3.9c-2.6-2.6-3.9-5.8-3.9-9.5H34.3c0,3.8-1.3,7-3.9,9.5C27.8,71.3,24.6,72.6,20.9,72.6
	 M20.9,65.8c1.8,0,3.4-0.6,4.7-1.9c1.3-1.3,1.9-2.8,1.9-4.7c0-1.8-0.6-3.4-1.9-4.7c-1.3-1.3-2.8-1.9-4.7-1.9s-3.4,0.6-4.7,1.9
	c-1.3,1.3-1.9,2.8-1.9,4.7c0,1.8,0.6,3.4,1.9,4.7C17.5,65.2,19.1,65.8,20.9,65.8 M6.8,6.8v45.6h2.5c1.3-2,2.9-3.7,4.9-4.9
	c2-1.2,4.2-1.8,6.6-1.8s4.6,0.6,6.6,1.9s3.7,2.9,4.9,4.8h33.4V6.8H6.8z M78.5,65.8c1.8,0,3.4-0.6,4.7-1.9c1.3-1.3,1.9-2.8,1.9-4.7
	c0-1.8-0.6-3.4-1.9-4.7s-2.8-1.9-4.7-1.9c-1.8,0-3.4,0.6-4.7,1.9c-1.3,1.3-1.9,2.8-1.9,4.7c0,1.8,0.6,3.4,1.9,4.7
	C75.2,65.2,76.7,65.8,78.5,65.8 M72.6,42.6h21.1L81.1,25.8h-8.5V42.6z"/>
</svg>
