<?xml version="1.0" encoding="utf-8"?>
<!-- Generator: Adobe Illustrator 23.0.1, SVG Export Plug-In . SVG Version: 6.00 Build 0)  -->
<svg version="1.1" id="Layer_1" xmlns="http://www.w3.org/2000/svg" xmlns:xlink="http://www.w3.org/1999/xlink" x="0px" y="0px"
	 viewBox="0 0 100 101.6" style="enable-background:new 0 0 100 101.6;" xml:space="preserve">
<style type="text/css">
	.st0{fill:#A60E18;}
</style>
<path class="st0" d="M30,101.6c-2.5,0-4.7-0.9-6.5-2.7c-1.8-1.8-2.7-4-2.7-6.5s0.9-4.7,2.7-6.5c1.8-1.8,3.9-2.7,6.4-2.7
	s4.7,0.9,6.5,2.7s2.7,4,2.7,6.5s-0.9,4.7-2.7,6.5C34.7,100.7,32.5,101.6,30,101.6 M80.8,101.6c-2.5,0-4.7-0.9-6.5-2.7
	c-1.8-1.8-2.7-4-2.7-6.5s0.9-4.7,2.7-6.5c1.8-1.8,3.9-2.7,6.4-2.7s4.7,0.9,6.5,2.7s2.7,4,2.7,6.5s-0.9,4.7-2.7,6.5
	C85.5,100.7,83.3,101.6,80.8,101.6 M23.4,17.7l14,29H74l15.9-29H23.4z M28.7,75.1c-3.6,0-6.1-1.2-7.7-3.6c-1.6-2.4-1.5-5,0.1-8
	l8.1-15L9.9,7.6H3.7c-1,0-1.9-0.4-2.6-1.1C0.4,5.7,0,4.8,0,3.7s0.4-1.9,1.1-2.7C1.8,0.4,2.7,0,3.8,0h8.6c0.8,0,1.4,0.2,2.1,0.6
	c0.6,0.4,1.1,0.9,1.4,1.6l3.7,7.9h74.9c2.7,0,4.4,0.8,5.1,2.5c0.7,1.7,0.5,3.5-0.7,5.5L81.7,48.9c-0.8,1.4-2,2.7-3.6,3.7
	c-1.5,1.1-3.2,1.6-5,1.6H34.7l-7.1,13.2h58.7c1,0,1.9,0.4,2.6,1.1c0.7,0.8,1.1,1.7,1.1,2.7s-0.4,1.9-1.1,2.7
	c-0.7,0.7-1.6,1.1-2.7,1.1H28.7z M37.4,46.6H74H37.4z"/>
</svg>
