<?xml version="1.0" encoding="utf-8"?>
<!-- Generator: Adobe Illustrator 23.0.1, SVG Export Plug-In . SVG Version: 6.00 Build 0)  -->
<svg version="1.1" id="Layer_1" xmlns="http://www.w3.org/2000/svg" xmlns:xlink="http://www.w3.org/1999/xlink" x="0px" y="0px"
	 viewBox="0 0 100 95.6" style="enable-background:new 0 0 100 95.6;" xml:space="preserve">
<style type="text/css">
	.st0{fill:#A60E18;}
</style>
<path class="st0" d="M32.8,93.7l-7.2-12.3l-14.4-2.9c-0.9-0.2-1.6-0.6-2.1-1.4c-0.6-0.8-0.8-1.6-0.6-2.4l1.6-13.9L0.9,50.1
	C0.3,49.5,0,48.7,0,47.8c0-0.9,0.3-1.7,0.9-2.3l9.2-10.6L8.5,21c-0.2-0.9,0.1-1.7,0.6-2.4c0.6-0.8,1.3-1.2,2.1-1.4l14.4-2.9
	l7.2-12.4c0.5-0.8,1.1-1.3,2-1.6s1.7-0.3,2.6,0.1L50,6.3l12.6-5.9c0.9-0.4,1.7-0.4,2.6-0.2c0.9,0.3,1.5,0.8,2,1.6l7.3,12.5l14.3,2.9
	c0.9,0.2,1.6,0.6,2.1,1.4c0.6,0.8,0.8,1.6,0.6,2.4l-1.6,13.9l9.2,10.6c0.6,0.6,0.9,1.4,0.9,2.3c0,0.9-0.3,1.7-0.9,2.3l-9.2,10.7
	l1.6,13.9c0.2,0.9-0.1,1.7-0.6,2.4c-0.6,0.8-1.3,1.2-2.1,1.4l-14.3,2.9l-7.3,12.4c-0.5,0.8-1.1,1.3-2,1.6c-0.9,0.3-1.7,0.2-2.6-0.2
	L50,89.3l-12.6,5.9c-0.9,0.4-1.7,0.4-2.6,0.1S33.3,94.5,32.8,93.7 M37.6,87.3L50,82.1l12.8,5.2l7.8-11.6l13.6-3.5l-1.4-13.8
	l9.4-10.7l-9.4-10.9l1.4-13.8l-13.6-3.2l-8-11.6L50,13.5L37.2,8.2l-7.8,11.6l-13.6,3.2l1.4,13.8L7.9,47.8l9.4,10.7l-1.4,14l13.6,3.2
	L37.6,87.3z M45,53.2l-8.5-8.8c-0.7-0.8-1.5-1.2-2.6-1.2c-1,0-1.9,0.3-2.7,1c-0.8,0.8-1.2,1.7-1.2,2.7s0.4,1.9,1.2,2.7l11.3,11.1
	c0.7,0.7,1.5,1,2.4,1c0.9,0,1.7-0.3,2.4-1l21.2-21.1c0.7-0.7,1-1.5,1-2.6c0-1-0.4-1.9-1.2-2.6c-0.7-0.6-1.5-0.9-2.5-0.9
	c-1,0-1.8,0.4-2.4,1L45,53.2z"/>
</svg>
