<?xml version="1.0" encoding="utf-8"?>
<!-- Generator: Adobe Illustrator 23.0.1, SVG Export Plug-In . SVG Version: 6.00 Build 0)  -->
<svg version="1.1" id="Layer_1" xmlns="http://www.w3.org/2000/svg" xmlns:xlink="http://www.w3.org/1999/xlink" x="0px" y="0px"
	 viewBox="0 0 100 100" style="enable-background:new 0 0 100 100;" xml:space="preserve">
<path d="M72.4,38.6l-3.9-3.9c-0.7-0.7-1.9-0.7-2.6,0L42.8,57.9l-11-11.1c-0.7-0.7-1.9-0.7-2.6,0l-3.9,3.9c-0.7,0.7-0.7,1.9,0,2.6
	l16.1,16.2c0.7,0.7,1.9,0.7,2.6,0l28.3-28.3C73.1,40.4,73.1,39.3,72.4,38.6z M50,0C22.4,0,0,22.4,0,50s22.4,50,50,50s50-22.4,50-50
	S77.6,0,50,0z M50,88.5c-21.2,0-38.5-17.2-38.5-38.5c0-21.2,17.2-38.5,38.5-38.5c21.2,0,38.5,17.2,38.5,38.5
	C88.5,71.2,71.2,88.5,50,88.5z"/>
</svg>
