<?xml version="1.0" encoding="utf-8"?>
<!-- Generator: Adobe Illustrator 23.0.1, SVG Export Plug-In . SVG Version: 6.00 Build 0)  -->
<svg version="1.1" id="Layer_1" xmlns="http://www.w3.org/2000/svg" xmlns:xlink="http://www.w3.org/1999/xlink" x="0px" y="0px"
	 viewBox="0 0 219 62.5" style="enable-background:new 0 0 219 62.5;" xml:space="preserve">
<style type="text/css">
	.st0{clip-path:url(#SVGID_2_);fill:#FFFFFF;}
</style>
<g>
	<defs>
		<rect id="SVGID_1_" x="0" y="0" width="219" height="62.5"/>
	</defs>
	<clipPath id="SVGID_2_">
		<use xlink:href="#SVGID_1_"  style="overflow:visible;"/>
	</clipPath>
	<path class="st0" d="M44.6,56.5L44.6,56.5c0.5-0.5,2.6-2.6,3-3.1c0.4-0.5,0.7-0.8,0.7-1c0-0.2-0.1-0.3-0.2-0.3
		c-0.1,0-0.2-0.1-0.2-0.1c0-0.1,0.1-0.1,0.2-0.1c0.3,0,1.1,0,1.4,0c0.4,0,1.2,0,1.6,0c0.1,0,0.2,0,0.2,0.1c0,0.1-0.1,0.1-0.2,0.1
		c-0.2,0-0.5,0.1-0.8,0.2c-0.4,0.2-0.9,0.5-1.5,1c-0.4,0.4-2.5,2.5-3,3c0.5,0.7,3.2,3.6,3.8,4.1c0.6,0.6,1.2,1.2,2,1.5
		c0.4,0.2,0.7,0.2,0.9,0.2c0.1,0,0.2,0,0.2,0.1c0,0.1-0.1,0.1-0.3,0.1h-1.2c-0.4,0-0.7,0-1,0c-0.8-0.1-1.1-0.4-1.7-0.9
		c-0.6-0.5-3.4-3.8-3.7-4.2L44.6,57h-0.1v1.3c0,1.3,0,2.4,0,3c0,0.4,0.2,0.7,0.5,0.8c0.2,0,0.5,0.1,0.7,0.1c0.1,0,0.2,0,0.2,0.1
		c0,0.1-0.1,0.1-0.3,0.1c-0.8,0-1.7,0-2,0c-0.3,0-1.2,0-1.8,0c-0.2,0-0.3,0-0.3-0.1c0-0.1,0.1-0.1,0.2-0.1c0.2,0,0.4,0,0.5-0.1
		c0.3-0.1,0.3-0.4,0.4-0.8c0.1-0.6,0.1-1.7,0.1-3v-2.5c0-2.1,0-2.5,0-3c0-0.5-0.1-0.7-0.6-0.8c-0.1,0-0.4,0-0.5,0
		c-0.2,0-0.2,0-0.2-0.1c0-0.1,0.1-0.1,0.3-0.1c0.7,0,1.6,0,1.9,0c0.3,0,1.2,0,1.7,0c0.2,0,0.3,0,0.3,0.1c0,0.1-0.1,0.1-0.2,0.1
		c-0.1,0-0.2,0-0.4,0c-0.4,0.1-0.5,0.3-0.5,0.8c0,0.4,0,0.8,0,3V56.5z"/>
	<path class="st0" d="M56,58.7c-0.1,0-0.1,0-0.1,0.1l-0.8,2c-0.1,0.3-0.2,0.7-0.2,0.8c0,0.3,0.1,0.4,0.6,0.4h0.2
		c0.2,0,0.2,0,0.2,0.1c0,0.1-0.1,0.1-0.2,0.1c-0.4,0-1,0-1.5,0c-0.2,0-0.9,0-1.6,0c-0.2,0-0.3,0-0.3-0.1c0-0.1,0.1-0.1,0.2-0.1
		c0.1,0,0.3,0,0.4,0c0.6-0.1,0.9-0.6,1.2-1.3l3.5-8.8c0.2-0.4,0.2-0.6,0.4-0.6c0.1,0,0.2,0.1,0.4,0.4c0.3,0.8,2.6,6.5,3.5,8.6
		c0.5,1.3,0.9,1.4,1.2,1.5c0.2,0,0.4,0.1,0.6,0.1c0.1,0,0.2,0,0.2,0.1c0,0.1-0.1,0.1-0.6,0.1c-0.5,0-1.5,0-2.6,0
		c-0.2,0-0.4,0-0.4-0.1c0-0.1,0.1-0.1,0.2-0.1c0.1,0,0.2-0.2,0.1-0.3l-1.1-3c0-0.1-0.1-0.1-0.1-0.1H56z M58.9,58
		C58.9,58,59,58,58.9,58l-1.2-3.5c0-0.1,0-0.1-0.1-0.1s-0.1,0.1-0.1,0.1l-1.3,3.4c0,0.1,0,0.1,0.1,0.1H58.9z"/>
	<path class="st0" d="M69,52.6l-2.1,0.1c-0.8,0-1.1,0.1-1.4,0.4c-0.1,0.2-0.2,0.4-0.2,0.5c0,0.1-0.1,0.2-0.2,0.2
		c-0.1,0-0.1-0.1-0.1-0.2c0-0.2,0.3-1.5,0.3-1.6c0-0.2,0.1-0.3,0.2-0.3c0.1,0,0.3,0.1,0.6,0.2c0.4,0,0.9,0.1,1.4,0.1H73
		c0.4,0,0.8,0,1-0.1c0.2,0,0.3-0.1,0.4-0.1c0.1,0,0.1,0.1,0.1,0.3c0,0.3,0,1.3,0,1.6c0,0.1,0,0.2-0.1,0.2c-0.1,0-0.1-0.1-0.2-0.3
		l0-0.2c0-0.4-0.4-0.8-1.6-0.8l-1.8,0v5.7c0,1.3,0,2.4,0.1,3c0,0.4,0.1,0.7,0.5,0.8c0.2,0,0.5,0.1,0.7,0.1c0.2,0,0.2,0,0.2,0.1
		c0,0.1-0.1,0.1-0.3,0.1c-0.9,0-1.8,0-2.2,0c-0.3,0-1.2,0-1.8,0c-0.2,0-0.3,0-0.3-0.1c0-0.1,0.1-0.1,0.2-0.1c0.2,0,0.4,0,0.5-0.1
		c0.3-0.1,0.4-0.4,0.4-0.8c0.1-0.6,0.1-1.7,0.1-3V52.6z"/>
	<path class="st0" d="M78.9,55.8c0-2.1,0-2.5,0-3c0-0.5-0.2-0.7-0.5-0.8c-0.2,0-0.3-0.1-0.5-0.1c-0.1,0-0.2,0-0.2-0.1
		c0-0.1,0.1-0.1,0.3-0.1c0.5,0,1.4,0,1.8,0c0.3,0,1.2,0,1.7,0c0.2,0,0.3,0,0.3,0.1c0,0.1-0.1,0.1-0.2,0.1c-0.1,0-0.3,0-0.4,0
		c-0.4,0.1-0.5,0.3-0.5,0.8c0,0.4,0,0.8,0,3v2.5c0,1.3,0,2.5,0.1,3c0,0.4,0.1,0.6,0.6,0.7c0.2,0,0.5,0.1,0.7,0.1
		c0.2,0,0.2,0,0.2,0.1c0,0.1-0.1,0.1-0.3,0.1c-0.9,0-1.8,0-2.2,0c-0.3,0-1.2,0-1.8,0c-0.2,0-0.3,0-0.3-0.1c0-0.1,0.1-0.1,0.2-0.1
		c0.2,0,0.4,0,0.5-0.1c0.3-0.1,0.4-0.3,0.4-0.7c0.1-0.6,0.1-1.7,0.1-3V55.8z"/>
	<path class="st0" d="M87.3,61c-1.4-1.2-1.7-2.8-1.7-4.1c0-1,0.3-2.6,1.6-3.8c1-0.9,2.3-1.5,4.4-1.5c0.9,0,1.4,0.1,2,0.1
		c0.5,0.1,1,0.2,1.4,0.2c0.2,0,0.2,0.1,0.2,0.2c0,0.1,0,0.3-0.1,0.8c0,0.5,0,1.2,0,1.5c0,0.2,0,0.3-0.2,0.3c-0.1,0-0.1-0.1-0.1-0.3
		c0-0.4-0.2-0.9-0.5-1.3c-0.5-0.5-1.6-0.9-2.8-0.9c-1.2,0-2,0.3-2.6,0.9c-1,0.9-1.3,2.3-1.3,3.6c0,3.3,2.5,5,4.4,5
		c1.2,0,2-0.1,2.6-0.8c0.2-0.3,0.4-0.7,0.5-0.9c0-0.2,0.1-0.3,0.2-0.3c0.1,0,0.1,0.1,0.1,0.2c0,0.2-0.2,1.4-0.3,1.9
		c-0.1,0.2-0.1,0.3-0.4,0.4c-0.6,0.2-1.6,0.3-2.5,0.3C90.2,62.5,88.6,62.1,87.3,61 M93.5,49.6c0.1,0.2,0,0.2-0.1,0.2
		c-0.1,0-0.2,0-0.5,0c-0.8,0.1-1.9,0.5-2.4,0.8c-0.1,0.1-0.2,0.1-0.2,0.1c0,0-0.1,0-0.1-0.1s0.1-0.1,0.1-0.2c0.6-0.5,2-1.6,2.2-1.8
		c0.1-0.1,0.2-0.1,0.3-0.1c0.1,0,0.1,0,0.2,0.2C93.2,48.9,93.3,49.2,93.5,49.6"/>
	<path class="st0" d="M105,53.2c-0.2-0.5-0.3-0.9-0.5-1c-0.2-0.1-0.4-0.1-0.6-0.1c-0.1,0-0.2,0-0.2-0.1c0-0.1,0.1-0.1,0.3-0.1
		c0.7,0,1.5,0,1.6,0c0.1,0,0.7,0,1.5,0c0.2,0,0.3,0,0.3,0.1c0,0.1-0.1,0.1-0.3,0.1c-0.1,0-0.3,0-0.3,0.1c-0.1,0.1-0.2,0.2-0.2,0.3
		c0,0.2,0.1,0.7,0.3,1.3c0.2,0.9,1.5,5.1,1.8,5.9h0l2.7-7.3c0.1-0.4,0.2-0.5,0.4-0.5c0.2,0,0.2,0.2,0.4,0.7l2.9,7h0
		c0.3-0.9,1.4-4.6,1.9-6.3c0.1-0.3,0.1-0.6,0.1-0.8c0-0.2-0.1-0.4-0.7-0.4c-0.1,0-0.2,0-0.2-0.1c0-0.1,0.1-0.1,0.3-0.1
		c0.7,0,1.3,0,1.4,0c0.1,0,0.7,0,1.2,0c0.2,0,0.3,0,0.3,0.1c0,0.1-0.1,0.1-0.2,0.1c-0.1,0-0.3,0-0.5,0.1c-0.3,0.1-0.5,0.7-0.8,1.5
		c-0.6,1.8-2.1,6.2-2.8,8.3c-0.2,0.5-0.2,0.7-0.4,0.7c-0.1,0-0.2-0.2-0.4-0.7l-2.9-7h0c-0.3,0.7-2.1,5.6-2.7,6.9
		c-0.3,0.6-0.3,0.7-0.5,0.7c-0.1,0-0.2-0.2-0.3-0.5L105,53.2z"/>
	<path class="st0" d="M123.2,55.8c0-2.1,0-2.5,0-3c0-0.5-0.2-0.7-0.5-0.8c-0.2,0-0.3-0.1-0.5-0.1c-0.1,0-0.2,0-0.2-0.1
		c0-0.1,0.1-0.1,0.3-0.1c0.5,0,1.4,0,1.8,0c0.3,0,1.2,0,1.7,0c0.2,0,0.3,0,0.3,0.1c0,0.1-0.1,0.1-0.2,0.1c-0.1,0-0.3,0-0.4,0
		c-0.4,0.1-0.5,0.3-0.5,0.8c0,0.4,0,0.8,0,3v2.5c0,1.3,0,2.5,0.1,3c0,0.4,0.1,0.6,0.6,0.7c0.2,0,0.5,0.1,0.7,0.1
		c0.2,0,0.2,0,0.2,0.1c0,0.1-0.1,0.1-0.3,0.1c-0.9,0-1.8,0-2.2,0c-0.3,0-1.2,0-1.8,0c-0.2,0-0.3,0-0.3-0.1c0-0.1,0.1-0.1,0.2-0.1
		c0.2,0,0.4,0,0.5-0.1c0.3-0.1,0.4-0.3,0.4-0.7c0.1-0.6,0.1-1.7,0.1-3V55.8z"/>
	<path class="st0" d="M132.2,60.5c0,1.1,0.2,1.4,0.5,1.5c0.2,0.1,0.5,0.1,0.7,0.1c0.2,0,0.2,0,0.2,0.1c0,0.1-0.1,0.1-0.3,0.1
		c-0.9,0-1.5,0-1.7,0c-0.1,0-0.8,0-1.5,0c-0.2,0-0.3,0-0.3-0.1c0-0.1,0.1-0.1,0.2-0.1c0.2,0,0.4,0,0.6-0.1c0.4-0.1,0.4-0.5,0.4-1.7
		l0.1-8.3c0-0.3,0-0.5,0.2-0.5c0.2,0,0.3,0.2,0.5,0.4c0.2,0.2,2.3,2.5,4.3,4.5c0.9,0.9,2.8,3,3.1,3.2h0.1l-0.1-6.3
		c0-0.8-0.1-1.1-0.5-1.2c-0.2-0.1-0.5-0.1-0.7-0.1c-0.2,0-0.2,0-0.2-0.1c0-0.1,0.2-0.1,0.4-0.1c0.7,0,1.4,0,1.7,0c0.2,0,0.7,0,1.4,0
		c0.2,0,0.3,0,0.3,0.1c0,0.1-0.1,0.1-0.3,0.1c-0.1,0-0.3,0-0.4,0c-0.4,0.1-0.5,0.4-0.5,1.2l-0.2,8.8c0,0.3-0.1,0.4-0.2,0.4
		c-0.2,0-0.3-0.1-0.5-0.3c-0.9-0.8-2.7-2.7-4.1-4.1c-1.5-1.5-3.1-3.3-3.3-3.5h0L132.2,60.5z"/>
	<path class="st0" d="M146.5,55.8c0-2.1,0-2.5,0-3c0-0.5-0.1-0.7-0.6-0.8c-0.1,0-0.3,0-0.5,0c-0.2,0-0.2,0-0.2-0.1
		c0-0.1,0.1-0.1,0.3-0.1c0.4,0,0.8,0,1.1,0c0.4,0,0.7,0,0.9,0c0.4,0,3.2,0,3.5,0c0.3,0,0.5,0,0.6-0.1c0.1,0,0.2-0.1,0.2-0.1
		c0.1,0,0.1,0.1,0.1,0.1c0,0.1-0.1,0.3-0.1,0.9c0,0.1,0,0.8-0.1,0.9c0,0.1,0,0.1-0.1,0.1c-0.1,0-0.1-0.1-0.1-0.2
		c0-0.1,0-0.3-0.1-0.5c-0.1-0.3-0.2-0.4-0.9-0.5c-0.2,0-1.7-0.1-2-0.1c-0.1,0-0.1,0-0.1,0.1v3.5c0,0.1,0,0.2,0.1,0.2
		c0.3,0,1.9,0,2.2,0c0.3,0,0.5-0.1,0.7-0.2c0.1-0.1,0.2-0.2,0.2-0.2c0.1,0,0.1,0,0.1,0.1c0,0.1-0.1,0.3-0.1,1c0,0.3-0.1,0.8-0.1,0.9
		c0,0.1,0,0.3-0.1,0.3c-0.1,0-0.1-0.1-0.1-0.1c0-0.1,0-0.3-0.1-0.5c-0.1-0.3-0.3-0.5-0.8-0.5c-0.3,0-1.6,0-2,0
		c-0.1,0-0.1,0.1-0.1,0.1v1.1c0,0.5,0,1.8,0,2.2c0,1,0.3,1.2,1.7,1.2c0.4,0,0.9,0,1.3-0.2c0.4-0.2,0.5-0.5,0.6-1
		c0-0.2,0.1-0.2,0.2-0.2c0.1,0,0.1,0.1,0.1,0.3c0,0.3-0.1,1.3-0.2,1.5c-0.1,0.4-0.2,0.4-0.8,0.4c-1,0-1.8,0-2.4,0c-0.6,0-1,0-1.5,0
		c-0.2,0-0.5,0-0.8,0c-0.3,0-0.7,0-1,0c-0.2,0-0.3,0-0.3-0.1c0-0.1,0.1-0.1,0.2-0.1c0.2,0,0.4,0,0.5-0.1c0.3-0.1,0.3-0.4,0.4-0.8
		c0.1-0.6,0.1-1.7,0.1-3V55.8z"/>
	<path class="st0" d="M157.2,55.8c0-2.1,0-2.5,0-2.9c0-0.5-0.1-0.7-0.6-0.8c-0.1,0-0.3,0-0.5,0c-0.2,0-0.2,0-0.2-0.1
		s0.1-0.1,0.3-0.1c0.7,0,1.6,0,1.9,0c0.5,0,1.5,0,2,0c0.9,0,1.8,0.1,2.6,0.6c0.4,0.3,0.9,1,0.9,1.9c0,1-0.4,2-1.8,3.1
		c1.2,1.6,2.2,2.8,3,3.7c0.8,0.8,1.4,0.9,1.6,0.9c0.2,0,0.3,0,0.4,0c0.1,0,0.2,0,0.2,0.1c0,0.1-0.1,0.1-0.3,0.1h-1.3
		c-0.8,0-1.1-0.1-1.5-0.3c-0.6-0.3-1.1-1-1.9-2c-0.6-0.8-1.2-1.7-1.4-1.9c-0.1-0.1-0.2-0.1-0.3-0.1l-1.2,0c-0.1,0-0.1,0-0.1,0.1v0.2
		c0,1.3,0,2.4,0.1,3c0,0.4,0.1,0.7,0.5,0.8c0.2,0,0.5,0.1,0.7,0.1c0.1,0,0.2,0,0.2,0.1c0,0.1-0.1,0.1-0.3,0.1c-0.8,0-1.8,0-2.1,0
		c-0.3,0-1.1,0-1.7,0c-0.2,0-0.3,0-0.3-0.1c0-0.1,0.1-0.1,0.2-0.1c0.2,0,0.4,0,0.5-0.1c0.3-0.1,0.3-0.4,0.4-0.8
		c0.1-0.6,0.1-1.7,0.1-3V55.8z M158.9,57c0,0.2,0,0.2,0.1,0.3c0.3,0.1,0.7,0.1,1.1,0.1c0.6,0,0.7-0.1,1-0.2c0.4-0.3,0.8-0.9,0.8-2.1
		c0-2-1.3-2.6-2.1-2.6c-0.3,0-0.6,0-0.7,0.1c-0.1,0-0.1,0.1-0.1,0.2V57z"/>
	<path class="st0" d="M171.2,58.7c0-0.8-0.1-1.1-0.3-1.5c-0.1-0.2-2-3.3-2.5-4c-0.3-0.5-0.7-0.9-1-1c-0.2-0.1-0.4-0.2-0.6-0.2
		c-0.1,0-0.2,0-0.2-0.1c0-0.1,0.1-0.1,0.3-0.1c0.3,0,1.3,0,1.8,0c0.3,0,0.9,0,1.5,0c0.1,0,0.2,0,0.2,0.1c0,0.1-0.1,0.1-0.3,0.2
		c-0.1,0-0.2,0.1-0.2,0.3c0,0.1,0.1,0.3,0.2,0.5c0.2,0.4,2.1,3.8,2.4,4.2c0.1-0.3,1.9-3.4,2.1-3.8c0.1-0.3,0.2-0.5,0.2-0.7
		c0-0.1-0.1-0.3-0.3-0.4c-0.1,0-0.3,0-0.3-0.1c0-0.1,0.1-0.1,0.2-0.1c0.5,0,0.9,0,1.3,0c0.3,0,1.2,0,1.5,0c0.2,0,0.2,0,0.2,0.1
		c0,0.1-0.1,0.1-0.3,0.1c-0.1,0-0.4,0.1-0.6,0.2c-0.3,0.1-0.4,0.3-0.8,0.7c-0.5,0.6-2.4,3.8-2.7,4.4c-0.2,0.5-0.2,0.9-0.2,1.4v1.1
		c0,0.2,0,0.8,0,1.4c0,0.4,0.2,0.7,0.6,0.8c0.2,0,0.5,0.1,0.7,0.1c0.2,0,0.2,0,0.2,0.1c0,0.1-0.1,0.1-0.3,0.1c-0.9,0-1.8,0-2.1,0
		c-0.3,0-1.2,0-1.7,0c-0.2,0-0.3,0-0.3-0.1c0-0.1,0.1-0.1,0.2-0.1c0.2,0,0.4,0,0.5-0.1c0.3-0.1,0.4-0.4,0.4-0.8c0-0.6,0-1.2,0-1.4
		V58.7z"/>
	<path class="st0" d="M10.3,15.4h0.2c1.6-1.7,8.3-8.6,9.6-10.1c1.3-1.5,2.3-2.7,2.3-3.5c0-0.5-0.2-0.8-0.6-0.9
		c-0.4-0.1-0.6-0.2-0.6-0.5c0-0.3,0.2-0.4,0.7-0.4c1,0,3.5,0.1,4.7,0.1c1.4,0,4-0.1,5.4-0.1c0.5,0,0.8,0.1,0.8,0.4
		c0,0.3-0.2,0.4-0.7,0.4c-0.6,0-1.8,0.2-2.7,0.5c-1.4,0.6-3,1.5-5,3.5c-1.4,1.4-8.4,8.3-9.9,9.9c1.7,2.2,10.7,11.9,12.5,13.6
		c2,1.9,4.1,4,6.6,5c1.4,0.6,2.3,0.7,2.9,0.7c0.3,0,0.6,0.1,0.6,0.4c0,0.3-0.2,0.5-1.1,0.5h-4c-1.4,0-2.2,0-3.2-0.1
		c-2.5-0.2-3.7-1.2-5.7-3C21,29.9,12,19.3,11,18l-0.5-0.7h-0.2v4.2c0,4.2,0,7.9,0.1,9.9c0.1,1.3,0.5,2.3,1.7,2.5
		c0.6,0.1,1.7,0.2,2.3,0.2c0.4,0,0.6,0.1,0.6,0.4c0,0.3-0.4,0.5-0.9,0.5c-2.6,0-5.5-0.1-6.6-0.1c-1.1,0-4,0.1-5.8,0.1
		c-0.6,0-0.9-0.1-0.9-0.5c0-0.2,0.2-0.4,0.7-0.4c0.7,0,1.2-0.1,1.7-0.2c0.9-0.2,1.2-1.2,1.3-2.5c0.2-1.9,0.2-5.6,0.2-9.8v-8.1
		c0-7,0-8.3-0.1-9.8C4.5,2,4.1,1.3,2.6,1C2.2,0.9,1.4,0.8,0.8,0.8C0.3,0.8,0,0.7,0,0.4C0,0.1,0.3,0,1,0c2.4,0,5.3,0.1,6.4,0.1
		c1.1,0,4-0.1,5.6-0.1c0.6,0,1,0.1,1,0.4c0,0.3-0.3,0.4-0.6,0.4c-0.5,0-0.7,0-1.3,0.1c-1.2,0.2-1.6,1-1.7,2.6
		c-0.1,1.5-0.1,2.8-0.1,9.8V15.4z"/>
	<path class="st0" d="M52.6,25c-0.2,0-0.3,0-0.4,0.3l-2.2,5.2c-0.4,1-0.6,1.9-0.6,2.4c0,0.7,0.4,1.1,1.6,1.1h0.6
		c0.5,0,0.6,0.2,0.6,0.4c0,0.3-0.2,0.4-0.6,0.4c-1.3,0-3.2-0.1-4.5-0.1c-0.4,0-2.6,0.1-4.7,0.1c-0.5,0-0.7-0.1-0.7-0.4
		c0-0.2,0.1-0.4,0.5-0.4c0.4,0,0.8,0,1.2,0c1.8-0.3,2.5-1.5,3.4-3.5L57.3,5.9c0.5-1.1,0.8-1.6,1.2-1.6c0.6,0,0.8,0.4,1.2,1.2
		c1,2.2,7.7,18.2,10.3,24.1c1.6,3.5,2.7,4.1,3.5,4.2c0.6,0.1,1.1,0.1,1.5,0.1c0.4,0,0.5,0.1,0.5,0.4c0,0.3-0.2,0.4-1.7,0.4
		c-1.4,0-4.4,0-7.8-0.1c-0.7,0-1.2,0-1.2-0.3c0-0.2,0.1-0.4,0.5-0.4c0.3,0,0.6-0.4,0.4-0.9l-3.1-7.9C62.5,25,62.3,25,62.2,25H52.6z
		 M61.3,22.8c0.2,0,0.2-0.1,0.2-0.2l-3.8-9.9c0-0.1-0.1-0.4-0.2-0.4c-0.1,0-0.2,0.2-0.2,0.4l-3.9,9.9c-0.1,0.2,0,0.3,0.1,0.3H61.3z"
		/>
	<path class="st0" d="M92,7.6l-6,0.1c-2.3,0-3.3,0.3-3.9,1.2c-0.4,0.6-0.6,1.1-0.7,1.3c-0.1,0.3-0.2,0.5-0.5,0.5
		c-0.3,0-0.4-0.2-0.4-0.6c0-0.6,0.8-4.4,0.9-4.7c0.1-0.5,0.2-0.7,0.5-0.7c0.3,0,0.7,0.3,1.8,0.5c1.2,0.1,2.7,0.2,4.1,0.2h16.4
		c1.3,0,2.2-0.1,2.8-0.2c0.6-0.1,1-0.2,1.1-0.2c0.3,0,0.3,0.2,0.3,0.8c0,0.8-0.1,3.7-0.1,4.7c0,0.4-0.1,0.6-0.4,0.6
		c-0.3,0-0.4-0.2-0.5-0.8l0-0.4c-0.1-1-1.2-2.2-4.8-2.3l-5.1-0.1v15.8c0,3.6,0.1,6.7,0.2,8.4c0.1,1.1,0.4,1.8,1.6,2
		c0.6,0.1,1.5,0.1,2.1,0.1c0.5,0,0.6,0.2,0.6,0.4c0,0.3-0.3,0.4-0.8,0.4c-2.7,0-5.4-0.1-6.5-0.1c-0.9,0-3.7,0.1-5.3,0.1
		c-0.5,0-0.8-0.1-0.8-0.4c0-0.2,0.1-0.4,0.6-0.4c0.6,0,1.1,0,1.4-0.1c0.8-0.2,1.1-0.9,1.2-2.1C92,30.1,92,27,92,23.4V7.6z"/>
	<path class="st0" d="M120.9,16.5c0-5.9,0-7,0-8.3c-0.1-1.3-0.5-1.8-1.4-2.1C119,6,118.5,6,118,6c-0.4,0-0.6-0.1-0.6-0.5
		c0-0.2,0.3-0.3,1-0.3c1.5,0,4.3,0.1,5.4,0.1c1,0,3.6-0.1,5.2-0.1c0.5,0,0.8,0.1,0.8,0.3c0,0.4-0.2,0.5-0.6,0.5
		c-0.4,0-0.7,0-1.2,0.1c-1.1,0.2-1.4,0.7-1.5,2.1c-0.1,1.2-0.1,2.3-0.1,8.3v6.9c0,3.8,0,6.9,0.2,8.6c0.1,1.1,0.4,1.7,1.6,1.8
		c0.6,0.1,1.5,0.1,2.1,0.1c0.5,0,0.6,0.2,0.6,0.4c0,0.3-0.3,0.4-0.8,0.4c-2.7,0-5.4-0.1-6.5-0.1c-0.9,0-3.7,0.1-5.3,0.1
		c-0.5,0-0.8-0.1-0.8-0.4c0-0.2,0.1-0.4,0.6-0.4c0.6,0,1.1,0,1.4-0.1c0.8-0.2,1.1-0.7,1.2-1.9c0.2-1.6,0.2-4.7,0.2-8.5V16.5z"/>
	<path class="st0" d="M148.1,31.1c-4-3.4-5.1-7.8-5.1-11.6c0-2.7,0.9-7.3,4.7-10.7c2.9-2.6,6.8-4.1,12.8-4.1c2.5,0,4.1,0.2,5.9,0.4
		c1.5,0.2,2.9,0.5,4.1,0.6c0.5,0,0.6,0.2,0.6,0.5c0,0.3-0.1,0.8-0.2,2.2c-0.1,1.3-0.1,3.5-0.1,4.2c0,0.6-0.2,1-0.6,1
		c-0.3,0-0.4-0.3-0.4-0.8c-0.1-1.2-0.6-2.6-1.6-3.6c-1.4-1.3-4.1-2.3-7.8-2.3c-3.5,0-5.8,0.6-7.6,2.2c-3,2.6-3.7,6.4-3.7,10.2
		c0,9.3,7.2,13.7,12.6,13.7c3.6,0,5.6-0.3,7.2-2.1c0.7-0.8,1.2-1.9,1.4-2.6c0.1-0.6,0.2-0.8,0.5-0.8c0.3,0,0.5,0.4,0.5,0.7
		c0,0.5-0.5,3.9-0.9,5.2c-0.2,0.7-0.4,0.9-1.1,1.2c-1.6,0.6-4.7,0.9-7.3,0.9C156.5,35.3,151.8,34.2,148.1,31.1"/>
	<path class="st0" d="M208.8,18c0.1,0,0.2-0.1,0.2-0.3v-0.8c0-5.9,0-7.4-0.1-8.6c-0.1-1.3-0.5-1.8-1.8-2.1c-0.3-0.1-1-0.1-1.6-0.1
		c-0.5,0-0.7-0.1-0.7-0.4c0-0.3,0.3-0.4,0.9-0.4c2.2,0,5,0.1,6.1,0.1c1,0,3.6-0.1,5.2-0.1c0.6,0,0.9,0.1,0.9,0.4
		c0,0.3-0.3,0.4-0.7,0.4c-0.3,0-0.7,0-1.2,0.1c-1.1,0.2-1.4,0.7-1.5,2.1c-0.1,1.2-0.1,2.3-0.1,8.3v6.9c0,3.6,0,6.7,0.2,8.4
		c0.1,1.1,0.4,1.8,1.6,2c0.6,0.1,1.4,0.1,2.1,0.1c0.4,0,0.6,0.2,0.6,0.4c0,0.3-0.3,0.4-0.8,0.4c-2.6,0-5.3-0.1-6.4-0.1
		c-0.9,0-3.8,0.1-5.3,0.1c-0.6,0-0.9-0.1-0.9-0.4c0-0.2,0.2-0.4,0.6-0.4c0.6,0,1.1,0,1.5-0.1c0.8-0.2,1.1-0.9,1.2-2.1
		c0.2-1.7,0.2-4.6,0.2-8.2v-3c0-0.1-0.1-0.2-0.2-0.2h-15.3c-0.1,0-0.3,0-0.3,0.2v3c0,3.6,0,6.6,0.2,8.3c0.1,1.1,0.4,1.8,1.6,2
		c0.6,0.1,1.5,0.1,2.1,0.1c0.5,0,0.6,0.2,0.6,0.4c0,0.3-0.3,0.4-0.8,0.4c-2.6,0-5.4-0.1-6.6-0.1c-0.9,0-3.6,0.1-5.2,0.1
		c-0.5,0-0.8-0.1-0.8-0.4c0-0.2,0.1-0.4,0.6-0.4c0.6,0,1.1,0,1.4-0.1c0.8-0.2,1.1-0.9,1.2-2.1c0.2-1.7,0.2-4.7,0.2-8.3v-6.9
		c0-5.9,0-7,0-8.3c-0.1-1.3-0.5-1.8-1.8-2.1C185.7,6,185,6,184.4,6c-0.4,0-0.7-0.1-0.7-0.4c0-0.3,0.3-0.4,0.9-0.4
		c2.2,0,4.8,0.1,5.9,0.1c1,0,3.8-0.1,5.4-0.1c0.6,0,0.8,0.1,0.8,0.4c0,0.3-0.2,0.4-0.7,0.4c-0.3,0-0.7,0-1.1,0.1
		c-1.1,0.2-1.4,0.7-1.5,2.1c-0.1,1.2-0.1,2.7-0.1,8.6v0.8c0,0.2,0.1,0.3,0.3,0.3H208.8z"/>
</g>
</svg>
