<?xml version="1.0" encoding="utf-8"?>
<!-- Generator: Adobe Illustrator 23.0.1, SVG Export Plug-In . SVG Version: 6.00 Build 0)  -->
<svg version="1.1" id="Layer_1" xmlns="http://www.w3.org/2000/svg" xmlns:xlink="http://www.w3.org/1999/xlink" x="0px" y="0px"
	 viewBox="0 0 100 178.9" style="enable-background:new 0 0 100 178.9;" xml:space="preserve">
<style type="text/css">
	.st0{fill:#FFFFFF;}
</style>
<path class="st0" d="M15.9,2.6l82,82c0.8,0.8,1.3,1.6,1.6,2.3c0.3,0.8,0.5,1.6,0.5,2.6c0,0.9-0.2,1.8-0.5,2.6
	c-0.3,0.8-0.9,1.6-1.6,2.3l-82,82c-1.7,1.7-3.9,2.6-6.5,2.6s-4.8-0.9-6.5-2.6C1,174.5,0,172.3,0,169.7c0-2.6,0.9-4.8,2.8-6.7
	l73.6-73.6L2.8,15.9c-2-2-3-4.3-2.8-6.8s1.1-4.6,2.8-6.3C4.7,0.9,6.9,0,9.5,0S14.2,0.9,15.9,2.6z"/>
</svg>
