<?xml version="1.0" encoding="utf-8"?>
<!-- Generator: Adobe Illustrator 23.0.1, SVG Export Plug-In . SVG Version: 6.00 Build 0)  -->
<svg version="1.1" id="Layer_1" xmlns="http://www.w3.org/2000/svg" xmlns:xlink="http://www.w3.org/1999/xlink" x="0px" y="0px"
	 viewBox="0 0 100 178.9" style="enable-background:new 0 0 100 178.9;" xml:space="preserve">
<style type="text/css">
	.st0{fill:#A60E18;}
</style>
<path class="st0" d="M84.1,176.4l-82-82c-0.8-0.8-1.3-1.6-1.6-2.3C0.2,91.3,0,90.4,0,89.5c0-0.9,0.2-1.8,0.5-2.6
	c0.3-0.8,0.9-1.6,1.6-2.3l82-82C85.8,0.9,88,0,90.6,0s4.8,0.9,6.5,2.6C99,4.4,100,6.7,100,9.2S99,14,97.2,15.9L23.6,89.5l73.6,73.6
	c2,2,3,4.3,2.8,6.8c-0.2,2.5-1.1,4.6-2.8,6.3c-1.9,1.9-4.1,2.8-6.7,2.8S85.8,178.1,84.1,176.4z"/>
</svg>
