<?xml version="1.0" encoding="utf-8"?>
<!-- Generator: Adobe Illustrator 23.0.1, SVG Export Plug-In . SVG Version: 6.00 Build 0)  -->
<svg version="1.1" id="Layer_1" xmlns="http://www.w3.org/2000/svg" xmlns:xlink="http://www.w3.org/1999/xlink" x="0px" y="0px"
	 viewBox="0 0 100 123.9" style="enable-background:new 0 0 100 123.9;" xml:space="preserve">
<style type="text/css">
	.st0{fill:#A60E18;}
</style>
<path class="st0" d="M44.8,80.8h10.3c0.7,0,1.3-0.3,1.9-0.9c0.5-0.6,0.7-1.2,0.5-1.9l-3.4-19.8c2.1-1,3.8-2.3,5-4.1
	c1.2-1.8,1.8-3.8,1.8-6c0-3-1.1-5.6-3.2-7.7C55.6,38.1,53,37,50,37c-3,0-5.6,1.1-7.7,3.2c-2.1,2.1-3.2,4.7-3.2,7.7
	c0,2.2,0.6,4.2,1.8,6c1.2,1.8,2.9,3.2,5,4.1L42.5,78c-0.2,0.7,0,1.3,0.5,1.9C43.5,80.5,44.1,80.8,44.8,80.8 M50,123.9
	c-0.6,0-1.1-0.1-1.5-0.2s-1-0.3-1.4-0.5c-14.5-4.9-25.9-13.7-34.4-26.3S0,70.4,0,55.3V24.7c0-2,0.6-3.8,1.7-5.4
	c1.1-1.6,2.6-2.8,4.4-3.5L46.7,0.6C47.9,0.2,49,0,50,0c1,0,2.1,0.2,3.3,0.6l40.6,15.2c1.8,0.7,3.3,1.9,4.4,3.5
	c1.1,1.6,1.7,3.4,1.7,5.4v30.6c0,15.1-4.2,29-12.7,41.7S67.4,118.4,53,123.3c-0.5,0.2-0.9,0.4-1.4,0.5
	C51.1,123.9,50.6,123.9,50,123.9 M50,114.7c12-4,21.7-11.4,29.3-22.4s11.3-23.3,11.3-37V24.7L50,9.4L9.4,24.7v30.6
	c0,13.6,3.8,26,11.3,37S38,110.7,50,114.7"/>
</svg>
