<?xml version="1.0" encoding="utf-8"?>
<!-- Generator: Adobe Illustrator 15.0.0, SVG Export Plug-In  -->
<!DOCTYPE svg PUBLIC "-//W3C//DTD SVG 1.1//EN" "http://www.w3.org/Graphics/SVG/1.1/DTD/svg11.dtd" [
	<!ENTITY ns_flows "http://ns.adobe.com/Flows/1.0/">
]>
<svg version="1.1"
	 xmlns="http://www.w3.org/2000/svg" xmlns:xlink="http://www.w3.org/1999/xlink" xmlns:a="http://ns.adobe.com/AdobeSVGViewerExtensions/3.0/"
	 x="0px" y="0px" width="176px" height="11px" viewBox="-0.284 -0.728 176 11" enable-background="new -0.284 -0.728 176 11"
	 xml:space="preserve">
<defs>
</defs>
<g>
	<defs>
		<rect id="SVGID_14_" x="0" y="0.001" width="175.448" height="10.271"/>
	</defs>
	<clipPath id="SVGID_15_">
		<use xlink:href="#SVGID_14_"  overflow="visible"/>
	</clipPath>
	<path clip-path="url(#SVGID_15_)" fill="#666C7B" d="M3.324,8.217c0.253,0,0.506-0.198,0.62-0.506l1.98-5.271
		c0.104-0.281,0.029-0.504-0.186-0.504H4.855c-0.254,0-0.518,0.2-0.619,0.504l-1.25,3.571L1.737,2.44
		C1.633,2.137,1.371,1.937,1.118,1.937H0.234c-0.218,0-0.292,0.223-0.188,0.504l1.981,5.272C2.139,8.02,2.393,8.219,2.646,8.219
		L3.324,8.217L3.324,8.217z"/>
</g>
<g>
	<defs>
		<rect id="SVGID_13_" x="0" y="0.001" width="175.448" height="10.271"/>
	</defs>
	<clipPath id="SVGID_16_">
		<use xlink:href="#SVGID_13_"  overflow="visible"/>
	</clipPath>
	<path clip-path="url(#SVGID_16_)" fill="#666C7B" d="M7.291,0.037c-0.159,0-0.279,0.152-0.279,0.351v5.437
		c0,0.2,0.12,0.354,0.279,0.354h1.026c0.159,0,0.28-0.152,0.28-0.354V0.388c0-0.199-0.122-0.351-0.28-0.351H7.291z"/>
</g>
<g>
	<defs>
		<rect id="SVGID_12_" x="0" y="0.001" width="175.448" height="10.271"/>
	</defs>
	<clipPath id="SVGID_17_">
		<use xlink:href="#SVGID_12_"  overflow="visible"/>
	</clipPath>
	<path clip-path="url(#SVGID_17_)" fill="#666C7B" d="M8.616,7.514c0-0.411-0.198-0.654-0.526-0.654H7.515
		c-0.33,0-0.525,0.244-0.525,0.654v0.199c0,0.412,0.195,0.658,0.525,0.658h0.573c0.328,0,0.526-0.246,0.526-0.658L8.616,7.514
		L8.616,7.514z"/>
</g>
<g>
	<defs>
		<rect id="SVGID_11_" x="0" y="0.001" width="175.448" height="10.271"/>
	</defs>
	<clipPath id="SVGID_18_">
		<use xlink:href="#SVGID_11_"  overflow="visible"/>
	</clipPath>
	<path clip-path="url(#SVGID_18_)" fill="#666C7B" d="M14.038,2.171c0-0.199-0.121-0.352-0.282-0.352
		c-1.033,0-1.51,0.352-2.037,0.835V2.29c0-0.2-0.122-0.353-0.282-0.353h-1.024c-0.159,0-0.281,0.153-0.281,0.353v5.578
		c0,0.198,0.122,0.35,0.281,0.35h1.024c0.16,0,0.282-0.15,0.282-0.35V4.204c0.338-0.505,0.713-0.845,1.183-0.845
		c0.244,0,0.489,0.035,0.705,0.035h0.149c0.161,0,0.282-0.152,0.282-0.352V2.171z"/>
</g>
<g>
	<defs>
		<rect id="SVGID_10_" x="0" y="0.001" width="175.448" height="10.271"/>
	</defs>
	<clipPath id="SVGID_19_">
		<use xlink:href="#SVGID_10_"  overflow="visible"/>
	</clipPath>
	<path clip-path="url(#SVGID_19_)" fill="#666C7B" d="M18.265,8.217c0.159-0.035,0.281-0.176,0.281-0.352V7.254
		c0-0.199-0.122-0.352-0.281-0.352h-0.169c-0.208,0-0.384,0.07-0.63,0.07c-0.476,0-0.806-0.421-0.806-1.221V3.652h1.278
		c0.158,0,0.281-0.153,0.281-0.353V2.618c0-0.199-0.123-0.353-0.281-0.353H16.66V0.352c0-0.2-0.122-0.352-0.282-0.352h-1.025
		c-0.157,0-0.281,0.152-0.281,0.352v5.402c0,1.758,0.659,2.58,1.974,2.58C17.465,8.334,17.983,8.288,18.265,8.217"/>
</g>
<g>
	<defs>
		<rect id="SVGID_9_" x="0" y="0.001" width="175.448" height="10.271"/>
	</defs>
	<clipPath id="SVGID_20_">
		<use xlink:href="#SVGID_9_"  overflow="visible"/>
	</clipPath>
	<path clip-path="url(#SVGID_20_)" fill="#666C7B" d="M21.167,2.29c0-0.201-0.122-0.354-0.282-0.354h-1.024
		c-0.158,0-0.28,0.153-0.28,0.354v3.287c0,1.948,0.863,2.76,2.085,2.76c0.705,0,1.173-0.377,1.605-0.834v0.363
		c0,0.199,0.123,0.352,0.281,0.352h1.024c0.161,0,0.284-0.151,0.284-0.352V2.29c0-0.201-0.123-0.354-0.284-0.354h-1.024
		c-0.158,0-0.281,0.153-0.281,0.354v3.839c-0.34,0.424-0.771,0.822-1.231,0.822c-0.516,0-0.873-0.398-0.873-1.375V2.29z"/>
</g>
<g>
	<defs>
		<rect id="SVGID_8_" x="0" y="0.001" width="175.448" height="10.271"/>
	</defs>
	<clipPath id="SVGID_21_">
		<use xlink:href="#SVGID_8_"  overflow="visible"/>
	</clipPath>
	<path clip-path="url(#SVGID_21_)" fill="#666C7B" d="M31.131,6.482c0-2.397-3.465-1.834-3.465-2.806
		c0-0.33,0.263-0.553,0.911-0.553c0.403,0,0.75,0.141,0.909,0.388c0.125,0.188,0.293,0.305,0.527,0.305H30.7
		c0.159,0,0.282-0.152,0.282-0.352c0-1.22-0.977-1.643-2.516-1.643c-1.325,0-2.385,0.528-2.385,1.855
		c0,2.37,3.463,1.831,3.463,2.806c0,0.327-0.262,0.55-1.051,0.55c-0.404,0-0.75-0.139-0.911-0.386
		c-0.123-0.188-0.292-0.306-0.526-0.306h-0.685c-0.158,0-0.283,0.152-0.283,0.353c0,1.22,0.978,1.642,2.518,1.642
		C30.07,8.336,31.131,7.808,31.131,6.482"/>
</g>
<g>
	<defs>
		<rect id="SVGID_7_" x="0" y="0.001" width="175.448" height="10.271"/>
	</defs>
	<clipPath id="SVGID_22_">
		<use xlink:href="#SVGID_7_"  overflow="visible"/>
	</clipPath>
	<path clip-path="url(#SVGID_22_)" fill="#666C7B" d="M41.104,7.866V0.352c0-0.2-0.119-0.352-0.28-0.352H39.8
		c-0.162,0-0.282,0.152-0.282,0.352v1.762c-0.385-0.152-0.759-0.294-1.325-0.294c-1.465,0-2.459,1.103-2.459,3.264
		c0,2.148,0.987,3.252,2.318,3.252c0.667,0,1.184-0.271,1.607-0.646v0.175c0,0.198,0.122,0.352,0.282,0.352h0.883
		C40.984,8.217,41.104,8.064,41.104,7.866 M39.518,6.434c-0.329,0.259-0.751,0.518-1.089,0.518c-0.752,0-1.063-0.576-1.063-1.869
		c0-1.303,0.311-1.878,1.156-1.878c0.237,0,0.611,0.082,0.996,0.235V6.434z"/>
</g>
<g>
	<defs>
		<rect id="SVGID_6_" x="0" y="0.001" width="175.448" height="10.271"/>
	</defs>
	<clipPath id="SVGID_23_">
		<use xlink:href="#SVGID_6_"  overflow="visible"/>
	</clipPath>
	<path clip-path="url(#SVGID_23_)" fill="#666C7B" d="M43.932,8.217c0.16,0,0.281-0.153,0.281-0.353V2.43
		c0-0.2-0.121-0.351-0.281-0.351h-1.023c-0.16,0-0.283,0.151-0.283,0.351v5.436c0,0.198,0.123,0.352,0.283,0.352H43.932
		L43.932,8.217z"/>
</g>
<g>
	<defs>
		<rect id="SVGID_5_" x="0" y="0.001" width="175.448" height="10.271"/>
	</defs>
	<clipPath id="SVGID_24_">
		<use xlink:href="#SVGID_5_"  overflow="visible"/>
	</clipPath>
	<path clip-path="url(#SVGID_24_)" fill="#666C7B" d="M49.82,3.676c0.198-0.248,0.328-0.448,0.328-0.835V2.29
		c0-0.201-0.123-0.353-0.283-0.353h-4.178c-0.16,0-0.282,0.152-0.282,0.353v0.68c0,0.2,0.122,0.353,0.282,0.353h2.46l-2.414,3.158
		c-0.197,0.247-0.329,0.448-0.329,0.833v0.552c0,0.198,0.122,0.352,0.282,0.352h4.217c0.159,0,0.281-0.152,0.281-0.352V7.185
		c0-0.201-0.123-0.353-0.281-0.353h-2.584L49.82,3.676z"/>
</g>
<g>
	<defs>
		<rect id="SVGID_4_" x="0" y="0.001" width="175.448" height="10.271"/>
	</defs>
	<clipPath id="SVGID_25_">
		<use xlink:href="#SVGID_4_"  overflow="visible"/>
	</clipPath>
	<path clip-path="url(#SVGID_25_)" fill="#666C7B" d="M56.357,7.866V4.32c0-1.796-1.063-2.501-2.414-2.501
		c-1.522,0-2.5,0.423-2.5,1.645c0,0.199,0.124,0.353,0.283,0.353h0.686c0.235,0,0.405-0.118,0.526-0.306
		c0.161-0.247,0.507-0.387,0.893-0.387c0.629,0,0.939,0.282,0.939,1.198H53.25c-1.231,0-2.169,0.669-2.169,1.998
		c0,1.325,0.938,2.017,2.169,2.017c0.723,0,1.241-0.271,1.663-0.644v0.175c0,0.198,0.121,0.353,0.28,0.353h0.884
		C56.234,8.217,56.357,8.064,56.357,7.866 M54.77,6.517c-0.329,0.257-0.799,0.515-1.362,0.515c-0.487,0-0.742-0.305-0.742-0.714
		c0-0.388,0.255-0.694,0.696-0.694h1.408V6.517L54.77,6.517z"/>
</g>
<g>
	<defs>
		<rect id="SVGID_3_" x="0" y="0.001" width="175.448" height="10.271"/>
	</defs>
	<clipPath id="SVGID_26_">
		<use xlink:href="#SVGID_3_"  overflow="visible"/>
	</clipPath>
	<path clip-path="url(#SVGID_26_)" fill="#666C7B" d="M59.541,2.43c0-0.198-0.122-0.353-0.282-0.353h-1.024
		c-0.157,0-0.281,0.154-0.281,0.353v5.142c0,1.034-0.33,1.339-0.611,1.339c-0.179,0-0.301-0.082-0.468-0.082h-0.141
		c-0.16,0-0.282,0.151-0.282,0.352v0.622c0,0.177,0.122,0.306,0.282,0.354c0.28,0.081,0.751,0.116,1.033,0.116
		c1.118,0,1.774-0.82,1.774-2.699V2.43L59.541,2.43z"/>
</g>
<g>
	<defs>
		<rect id="SVGID_2_" x="0" y="0.001" width="175.448" height="10.271"/>
	</defs>
	<clipPath id="SVGID_27_">
		<use xlink:href="#SVGID_2_"  overflow="visible"/>
	</clipPath>
	<path clip-path="url(#SVGID_27_)" fill="#666C7B" d="M64.752,7.866c0,0.198,0.123,0.352,0.281,0.352h1.023
		c0.159,0,0.282-0.152,0.282-0.352V4.577c0-1.948-0.863-2.758-2.085-2.758c-0.705,0-1.173,0.376-1.604,0.835V2.29
		c0-0.202-0.124-0.353-0.283-0.353h-1.023c-0.161,0-0.283,0.151-0.283,0.353v5.576c0,0.198,0.122,0.352,0.283,0.352h1.023
		c0.159,0,0.283-0.152,0.283-0.352v-3.84c0.336-0.421,0.768-0.821,1.227-0.821c0.518,0,0.876,0.399,0.876,1.372V7.866z"/>
</g>
<g>
	<defs>
		<rect id="SVGID_1_" x="0" y="0.001" width="175.448" height="10.271"/>
	</defs>
	<clipPath id="SVGID_28_">
		<use xlink:href="#SVGID_1_"  overflow="visible"/>
	</clipPath>
	<path clip-path="url(#SVGID_28_)" fill="#666C7B" d="M75.066,2.564c0.025-0.025,0.054-0.037,0.089-0.037h0.64
		c0.033,0,0.062,0.012,0.087,0.037c0.024,0.023,0.035,0.052,0.035,0.086v5.603c0,0.033-0.011,0.062-0.035,0.084
		c-0.025,0.025-0.054,0.037-0.087,0.037h-0.64c-0.036,0-0.064-0.012-0.089-0.037c-0.025-0.022-0.036-0.051-0.036-0.084V2.65
		C75.03,2.616,75.042,2.587,75.066,2.564 M79.65,8.252c0,0.033-0.016,0.062-0.039,0.084c-0.025,0.025-0.054,0.037-0.085,0.037
		h-0.641c-0.034,0-0.063-0.012-0.086-0.037c-0.026-0.022-0.038-0.051-0.038-0.084V2.65c0-0.034,0.012-0.063,0.038-0.086
		c0.023-0.025,0.053-0.037,0.086-0.037h0.624c0.012,0,0.03,0.005,0.054,0.02c0.023,0.014,0.038,0.025,0.043,0.037l2.671,4.052V2.65
		c0-0.034,0.011-0.063,0.037-0.086c0.024-0.025,0.054-0.037,0.086-0.037h0.643c0.032,0,0.061,0.012,0.084,0.037
		c0.025,0.023,0.037,0.052,0.037,0.086v5.603c0,0.033-0.011,0.062-0.037,0.084c-0.023,0.025-0.052,0.037-0.084,0.037h-0.627
		c-0.011,0-0.028-0.006-0.054-0.021c-0.024-0.015-0.04-0.024-0.045-0.037L79.65,4.258V8.252z M87.948,8.338
		c-0.023,0.023-0.051,0.037-0.085,0.037h-0.642c-0.033,0-0.06-0.014-0.084-0.037s-0.036-0.053-0.036-0.086V3.322h-1.487
		c-0.035,0-0.062-0.012-0.089-0.037C85.501,3.26,85.49,3.233,85.49,3.198V2.65c0-0.034,0.011-0.063,0.035-0.086
		c0.027-0.025,0.054-0.037,0.089-0.037h3.859c0.034,0,0.063,0.012,0.087,0.037c0.024,0.023,0.036,0.052,0.036,0.086v0.548
		c0,0.036-0.012,0.063-0.036,0.087c-0.023,0.024-0.053,0.037-0.087,0.037h-1.486v4.931C87.987,8.286,87.975,8.314,87.948,8.338
		 M91.959,2.564c0.024-0.025,0.054-0.037,0.085-0.037h3.492c0.031,0,0.061,0.012,0.086,0.037c0.023,0.023,0.035,0.052,0.035,0.086
		v0.548c0,0.036-0.012,0.063-0.035,0.087c-0.025,0.025-0.055,0.037-0.086,0.037h-2.729v1.71h2.312c0.031,0,0.062,0.013,0.086,0.038
		c0.023,0.024,0.035,0.052,0.035,0.085v0.543c0,0.031-0.012,0.063-0.035,0.084C95.18,5.808,95.15,5.82,95.119,5.82h-2.312v1.759
		h2.729c0.031,0,0.061,0.012,0.086,0.036c0.023,0.023,0.035,0.054,0.035,0.087V8.25c0,0.035-0.012,0.063-0.035,0.086
		c-0.025,0.024-0.055,0.039-0.086,0.039h-3.492c-0.031,0-0.061-0.015-0.085-0.039C91.934,8.314,91.92,8.286,91.92,8.25V2.65
		C91.92,2.616,91.934,2.587,91.959,2.564 M99.08,5.913v2.34c0,0.033-0.014,0.063-0.038,0.086c-0.024,0.024-0.052,0.037-0.087,0.037
		h-0.641c-0.031,0-0.063-0.013-0.086-0.037c-0.025-0.023-0.037-0.053-0.037-0.086V2.65c0-0.034,0.012-0.063,0.037-0.086
		c0.023-0.025,0.055-0.037,0.086-0.037h2.145c0.279,0,0.531,0.042,0.753,0.127c0.22,0.084,0.413,0.202,0.571,0.353
		c0.158,0.15,0.279,0.332,0.363,0.542c0.086,0.211,0.131,0.439,0.131,0.687c0,0.393-0.107,0.72-0.313,0.977
		c-0.21,0.257-0.494,0.45-0.855,0.577l1.258,2.405c0.026,0.05,0.029,0.091,0.009,0.127c-0.023,0.036-0.063,0.054-0.124,0.054h-0.756
		c-0.012,0-0.03-0.009-0.057-0.023c-0.027-0.02-0.043-0.029-0.053-0.042l-1.199-2.397h-1.105l0,0H99.08z M99.08,5.154h1.314
		c0.295,0,0.535-0.079,0.719-0.239c0.185-0.159,0.273-0.382,0.273-0.673c0-0.29-0.089-0.515-0.273-0.677
		c-0.184-0.161-0.424-0.242-0.719-0.242H99.08V5.154z M105.775,8.252c0,0.033-0.012,0.062-0.035,0.084
		c-0.024,0.025-0.055,0.037-0.088,0.037h-0.642c-0.032,0-0.062-0.012-0.083-0.037c-0.027-0.022-0.04-0.051-0.04-0.084V2.65
		c0-0.034,0.013-0.063,0.04-0.086c0.021-0.025,0.051-0.037,0.083-0.037h0.626c0.012,0,0.027,0.005,0.053,0.02
		c0.025,0.014,0.041,0.026,0.047,0.038l2.67,4.052V2.65c0-0.034,0.011-0.063,0.037-0.086c0.025-0.025,0.053-0.037,0.084-0.037h0.644
		c0.03,0,0.063,0.012,0.086,0.037c0.024,0.023,0.037,0.052,0.037,0.086v5.603c0,0.033-0.013,0.062-0.037,0.084
		c-0.022,0.025-0.056,0.037-0.086,0.037h-0.626c-0.012,0-0.027-0.006-0.053-0.021c-0.022-0.013-0.039-0.024-0.047-0.037l-2.67-4.058
		V8.252z M112.172,2.564c0.022-0.025,0.052-0.037,0.085-0.037h3.493c0.03,0,0.062,0.012,0.086,0.037
		c0.024,0.023,0.038,0.052,0.038,0.086v0.548c0,0.036-0.014,0.063-0.038,0.087s-0.056,0.037-0.086,0.037h-2.728v1.71h2.31
		c0.03,0,0.06,0.013,0.085,0.038c0.023,0.024,0.037,0.052,0.037,0.085v0.543c0,0.031-0.014,0.063-0.037,0.084
		c-0.025,0.026-0.055,0.038-0.085,0.038h-2.31v1.759h2.728c0.03,0,0.062,0.012,0.086,0.036c0.024,0.023,0.038,0.054,0.038,0.087
		V8.25c0,0.035-0.014,0.063-0.038,0.086c-0.024,0.024-0.056,0.039-0.086,0.039h-3.493c-0.033,0-0.063-0.015-0.085-0.039
		c-0.024-0.022-0.036-0.051-0.036-0.086V2.65C112.136,2.616,112.148,2.587,112.172,2.564 M120.346,8.338
		c-0.022,0.023-0.055,0.037-0.085,0.037h-0.641c-0.032,0-0.063-0.014-0.088-0.037c-0.023-0.023-0.037-0.053-0.037-0.086V3.322
		h-1.487c-0.03,0-0.06-0.012-0.084-0.037c-0.022-0.025-0.037-0.052-0.037-0.087V2.65c0-0.034,0.015-0.063,0.037-0.086
		c0.024-0.025,0.054-0.037,0.084-0.037h3.862c0.033,0,0.063,0.012,0.086,0.037c0.021,0.023,0.037,0.052,0.037,0.086v0.548
		c0,0.036-0.016,0.063-0.037,0.087c-0.023,0.025-0.053,0.037-0.086,0.037h-1.484v4.931C120.386,8.286,120.371,8.314,120.346,8.338
		 M128.492,5.913v2.34c0,0.033-0.01,0.063-0.035,0.086c-0.024,0.024-0.055,0.037-0.088,0.037h-0.641
		c-0.031,0-0.063-0.013-0.087-0.037c-0.022-0.023-0.036-0.053-0.036-0.086V2.65c0-0.034,0.014-0.063,0.036-0.086
		c0.024-0.025,0.056-0.037,0.087-0.037h2.145c0.281,0,0.531,0.042,0.752,0.127c0.223,0.084,0.412,0.202,0.57,0.353
		c0.16,0.15,0.28,0.332,0.364,0.542c0.087,0.211,0.13,0.439,0.13,0.687c0,0.393-0.106,0.72-0.313,0.977
		c-0.211,0.257-0.495,0.45-0.855,0.577l1.26,2.405c0.024,0.05,0.029,0.091,0.008,0.127c-0.023,0.036-0.063,0.054-0.123,0.054h-0.758
		c-0.012,0-0.029-0.009-0.058-0.023c-0.026-0.02-0.045-0.029-0.05-0.042l-1.197-2.397H128.492L128.492,5.913L128.492,5.913z
		 M128.492,5.154h1.314c0.297,0,0.536-0.079,0.719-0.239c0.184-0.159,0.275-0.382,0.275-0.673c0-0.29-0.091-0.515-0.275-0.677
		c-0.183-0.161-0.422-0.242-0.719-0.242h-1.314V5.154z M133.736,7.764c0.037-0.081,0.094-0.158,0.166-0.23
		c0.074-0.072,0.151-0.132,0.236-0.173c0.082-0.041,0.143-0.042,0.182-0.003c0.092,0.075,0.192,0.141,0.304,0.191
		c0.11,0.05,0.256,0.078,0.442,0.078c0.33,0,0.588-0.099,0.777-0.297c0.188-0.197,0.284-0.485,0.284-0.869V2.65
		c0-0.034,0.011-0.063,0.036-0.086c0.023-0.025,0.051-0.037,0.086-0.037h0.639c0.034,0,0.063,0.012,0.087,0.037
		c0.025,0.023,0.036,0.052,0.036,0.086v3.877c0,0.304-0.048,0.571-0.148,0.81c-0.102,0.24-0.24,0.438-0.422,0.596
		c-0.177,0.16-0.383,0.279-0.615,0.361c-0.237,0.082-0.491,0.125-0.76,0.125c-0.279,0-0.521-0.039-0.729-0.108
		c-0.21-0.07-0.407-0.19-0.594-0.361C133.697,7.906,133.695,7.842,133.736,7.764 M139.81,2.564c0.025-0.025,0.053-0.037,0.088-0.037
		h3.491c0.032,0,0.062,0.012,0.085,0.037c0.025,0.023,0.038,0.052,0.038,0.086v0.548c0,0.036-0.013,0.063-0.038,0.087
		c-0.023,0.025-0.053,0.037-0.085,0.037h-2.729v1.71h2.31c0.033,0,0.063,0.013,0.086,0.038c0.024,0.024,0.039,0.052,0.039,0.085
		v0.543c0,0.031-0.015,0.063-0.039,0.084c-0.022,0.026-0.053,0.038-0.086,0.038h-2.31v1.759h2.729c0.032,0,0.062,0.012,0.085,0.036
		c0.025,0.023,0.038,0.054,0.038,0.087V8.25c0,0.035-0.013,0.063-0.038,0.086c-0.023,0.024-0.053,0.039-0.085,0.039h-3.491
		c-0.035,0-0.063-0.015-0.088-0.039c-0.023-0.022-0.035-0.051-0.035-0.086V2.65C139.775,2.616,139.787,2.587,139.81,2.564
		 M147.333,1.942c-0.023-0.011-0.041-0.021-0.051-0.033l-0.854-1.076c-0.043-0.049-0.055-0.094-0.032-0.135
		c0.021-0.041,0.063-0.062,0.123-0.062h0.385c0.013,0,0.028,0.005,0.049,0.017c0.022,0.012,0.041,0.02,0.043,0.025l0.682,0.754
		l0.682-0.754c0.008-0.005,0.021-0.014,0.041-0.025c0.021-0.011,0.039-0.017,0.051-0.017h0.386c0.06,0,0.103,0.021,0.125,0.062
		c0.021,0.041,0.01,0.086-0.035,0.135l-0.853,1.076c-0.014,0.012-0.028,0.022-0.051,0.033c-0.021,0.012-0.037,0.017-0.049,0.017
		h-0.592C147.371,1.959,147.357,1.954,147.333,1.942 M145.611,7.557c0.043-0.079,0.101-0.155,0.174-0.229
		c0.074-0.074,0.15-0.133,0.233-0.174c0.081-0.042,0.144-0.043,0.183-0.005c0.201,0.183,0.418,0.308,0.647,0.375
		s0.485,0.104,0.765,0.104c0.385,0,0.679-0.08,0.892-0.233c0.211-0.158,0.313-0.377,0.313-0.66c0-0.22-0.043-0.388-0.133-0.503
		c-0.093-0.115-0.21-0.201-0.354-0.259c-0.146-0.058-0.313-0.099-0.504-0.118c-0.188-0.021-0.381-0.051-0.582-0.083
		c-0.2-0.033-0.393-0.082-0.582-0.147c-0.188-0.066-0.36-0.17-0.512-0.313c-0.287-0.268-0.431-0.642-0.431-1.118
		c0-0.257,0.046-0.49,0.138-0.699c0.09-0.207,0.219-0.387,0.385-0.542c0.168-0.153,0.371-0.271,0.617-0.354
		c0.244-0.082,0.516-0.124,0.816-0.124c0.359,0,0.678,0.046,0.949,0.138c0.27,0.088,0.525,0.236,0.768,0.438
		c0.045,0.038,0.049,0.097,0.014,0.173c-0.037,0.076-0.09,0.151-0.155,0.222c-0.07,0.069-0.144,0.127-0.224,0.168
		c-0.08,0.04-0.142,0.044-0.186,0.011c-0.175-0.142-0.359-0.24-0.555-0.296c-0.192-0.055-0.404-0.081-0.637-0.081
		c-0.347,0-0.61,0.084-0.793,0.258c-0.183,0.172-0.274,0.39-0.274,0.653c0,0.196,0.048,0.348,0.136,0.457
		c0.09,0.105,0.21,0.188,0.361,0.245c0.15,0.058,0.32,0.102,0.511,0.132c0.188,0.031,0.381,0.06,0.572,0.094
		c0.196,0.032,0.385,0.079,0.571,0.14c0.188,0.061,0.35,0.152,0.484,0.279c0.16,0.144,0.278,0.314,0.357,0.52
		c0.078,0.201,0.119,0.43,0.119,0.68c0,0.269-0.051,0.51-0.155,0.724c-0.103,0.214-0.249,0.395-0.437,0.542
		c-0.186,0.146-0.408,0.259-0.664,0.332c-0.259,0.074-0.541,0.111-0.847,0.111c-0.417,0-0.782-0.049-1.097-0.147
		c-0.315-0.101-0.61-0.274-0.885-0.525C145.572,7.699,145.568,7.637,145.611,7.557 M152.24,2.564
		c0.024-0.025,0.054-0.037,0.088-0.037h3.488c0.034,0,0.063,0.012,0.088,0.037c0.022,0.023,0.037,0.052,0.037,0.086v0.548
		c0,0.036-0.015,0.063-0.037,0.087c-0.025,0.025-0.054,0.037-0.088,0.037h-2.728v1.71h2.31c0.032,0,0.063,0.013,0.084,0.038
		c0.026,0.024,0.039,0.052,0.039,0.085v0.543c0,0.031-0.013,0.063-0.039,0.084c-0.021,0.026-0.052,0.038-0.084,0.038h-2.31v1.759
		h2.728c0.034,0,0.063,0.012,0.088,0.036c0.022,0.023,0.037,0.054,0.037,0.087V8.25c0,0.035-0.015,0.063-0.037,0.086
		c-0.025,0.024-0.054,0.039-0.088,0.039h-3.488c-0.034,0-0.063-0.015-0.088-0.039c-0.024-0.022-0.037-0.051-0.037-0.086V2.65
		C152.203,2.616,152.215,2.587,152.24,2.564 M159.361,8.252c0,0.033-0.014,0.062-0.039,0.084c-0.023,0.025-0.053,0.037-0.084,0.037
		h-0.643c-0.033,0-0.061-0.012-0.085-0.037c-0.024-0.022-0.037-0.051-0.037-0.084V2.65c0-0.034,0.013-0.063,0.037-0.086
		c0.024-0.025,0.052-0.037,0.085-0.037h0.624c0.013,0,0.029,0.005,0.054,0.02c0.023,0.014,0.039,0.026,0.045,0.038l2.672,4.052V2.65
		c0-0.034,0.011-0.063,0.035-0.086c0.025-0.025,0.055-0.037,0.086-0.037h0.642c0.032,0,0.062,0.012,0.088,0.037
		c0.022,0.023,0.038,0.052,0.038,0.086v5.603c0,0.033-0.016,0.062-0.038,0.084c-0.026,0.025-0.056,0.037-0.088,0.037h-0.624
		c-0.01,0-0.029-0.006-0.055-0.021c-0.021-0.015-0.039-0.024-0.043-0.037l-2.67-4.058V8.252z M165.152,7.764
		c0.041-0.081,0.094-0.158,0.168-0.23s0.152-0.132,0.234-0.173c0.083-0.041,0.143-0.042,0.182-0.003
		c0.094,0.075,0.194,0.141,0.303,0.191c0.111,0.051,0.261,0.078,0.445,0.078c0.332,0,0.586-0.099,0.777-0.297
		c0.188-0.197,0.281-0.485,0.281-0.869V2.65c0-0.034,0.014-0.063,0.037-0.086c0.025-0.025,0.053-0.037,0.085-0.037h0.641
		c0.034,0,0.063,0.012,0.085,0.037c0.027,0.023,0.04,0.052,0.04,0.086v3.877c0,0.304-0.051,0.571-0.155,0.81
		c-0.098,0.24-0.235,0.438-0.416,0.596c-0.177,0.16-0.383,0.279-0.619,0.361c-0.234,0.082-0.485,0.125-0.756,0.125
		c-0.277,0-0.523-0.039-0.73-0.108c-0.209-0.07-0.407-0.19-0.594-0.361C165.115,7.906,165.115,7.842,165.152,7.764 M171.839,7.202
		l-0.379,1.092c-0.008,0.018-0.02,0.033-0.043,0.055c-0.026,0.02-0.051,0.027-0.071,0.027h-0.685c-0.047,0-0.084-0.018-0.105-0.049
		c-0.021-0.033-0.021-0.07-0.008-0.115l2.055-5.604c0.014-0.015,0.027-0.033,0.053-0.052c0.024-0.019,0.045-0.027,0.063-0.027h0.551
		c0.016,0,0.036,0.008,0.061,0.027c0.025,0.019,0.043,0.037,0.056,0.052l2.054,5.604c0.016,0.045,0.016,0.082-0.01,0.115
		c-0.021,0.029-0.057,0.049-0.105,0.049h-0.683c-0.022,0-0.047-0.009-0.069-0.027c-0.022-0.021-0.039-0.038-0.047-0.055
		l-0.377-1.092H171.839z M173.902,6.446l-0.886-2.598L172.1,6.446H173.902z"/>
</g>
</svg>
