<?xml version="1.0" encoding="utf-8"?>
<!-- Generator: Adobe Illustrator 15.0.0, SVG Export Plug-In . SVG Version: 6.00 Build 0)  -->
<!DOCTYPE svg PUBLIC "-//W3C//DTD SVG 1.1//EN" "http://www.w3.org/Graphics/SVG/1.1/DTD/svg11.dtd">
<svg version="1.1" id="Layer_1" xmlns="http://www.w3.org/2000/svg" xmlns:xlink="http://www.w3.org/1999/xlink" x="0px" y="0px"
	 width="176px" height="11px" viewBox="0 0 176 11" enable-background="new 0 0 176 11" xml:space="preserve">
<g>
	<defs>
		<rect id="SVGID_1_" width="175.447" height="10.271"/>
	</defs>
	<clipPath id="SVGID_2_">
		<use xlink:href="#SVGID_1_"  overflow="visible"/>
	</clipPath>
	<path clip-path="url(#SVGID_2_)" fill="#FFFFFF" d="M3.325,8.217c0.253,0,0.506-0.197,0.62-0.506l1.98-5.27
		c0.104-0.28,0.03-0.504-0.186-0.504H4.854c-0.254,0-0.518,0.2-0.62,0.504l-1.25,3.571L1.736,2.441
		C1.632,2.138,1.371,1.938,1.118,1.938H0.233c-0.218,0-0.292,0.223-0.188,0.504l1.98,5.273c0.114,0.307,0.368,0.506,0.62,0.506
		l0.68-0.002V8.217z"/>
</g>
<g>
	<defs>
		<rect id="SVGID_3_" width="175.447" height="10.271"/>
	</defs>
	<clipPath id="SVGID_4_">
		<use xlink:href="#SVGID_3_"  overflow="visible"/>
	</clipPath>
	<path clip-path="url(#SVGID_4_)" fill="#FFFFFF" d="M7.292,0.037c-0.16,0-0.28,0.152-0.28,0.35v5.438
		c0,0.201,0.12,0.355,0.28,0.355h1.026c0.16,0,0.28-0.154,0.28-0.356V0.388c0-0.2-0.122-0.35-0.28-0.35L7.292,0.037L7.292,0.037z"/>
</g>
<g>
	<defs>
		<rect id="SVGID_5_" width="175.447" height="10.271"/>
	</defs>
	<clipPath id="SVGID_6_">
		<use xlink:href="#SVGID_5_"  overflow="visible"/>
	</clipPath>
	<path clip-path="url(#SVGID_6_)" fill="#FFFFFF" d="M8.617,7.514c0-0.41-0.198-0.654-0.526-0.654H7.517
		c-0.33,0-0.525,0.244-0.525,0.654v0.2c0,0.41,0.196,0.657,0.526,0.657h0.573c0.327,0,0.525-0.245,0.525-0.657L8.617,7.514
		L8.617,7.514z"/>
</g>
<g>
	<defs>
		<rect id="SVGID_7_" width="175.447" height="10.271"/>
	</defs>
	<clipPath id="SVGID_8_">
		<use xlink:href="#SVGID_7_"  overflow="visible"/>
	</clipPath>
	<path clip-path="url(#SVGID_8_)" fill="#FFFFFF" d="M14.04,2.17c0-0.198-0.122-0.35-0.283-0.35c-1.033,0-1.51,0.35-2.037,0.834
		V2.29c0-0.2-0.122-0.353-0.282-0.353h-1.024c-0.16,0-0.28,0.153-0.28,0.353v5.578c0,0.198,0.12,0.351,0.28,0.351h1.024
		c0.16,0,0.282-0.15,0.282-0.351V4.204c0.338-0.505,0.713-0.845,1.183-0.845c0.244,0,0.49,0.034,0.705,0.034h0.15
		c0.16,0,0.28-0.152,0.28-0.352v-0.87L14.04,2.17z"/>
</g>
<g>
	<defs>
		<rect id="SVGID_9_" width="175.447" height="10.271"/>
	</defs>
	<clipPath id="SVGID_10_">
		<use xlink:href="#SVGID_9_"  overflow="visible"/>
	</clipPath>
	<path clip-path="url(#SVGID_10_)" fill="#FFFFFF" d="M18.266,8.217c0.16-0.035,0.28-0.176,0.28-0.352v-0.61
		c0-0.2-0.12-0.353-0.28-0.353h-0.17c-0.207,0-0.383,0.07-0.63,0.07c-0.475,0-0.805-0.424-0.805-1.223V3.652h1.28
		c0.157,0,0.28-0.153,0.28-0.353V2.617c0-0.2-0.123-0.353-0.28-0.353h-1.28V0.352c0-0.2-0.12-0.352-0.28-0.352h-1.026
		c-0.157,0-0.28,0.152-0.28,0.352v5.402c0,1.758,0.658,2.58,1.973,2.58c0.418,0,0.936-0.046,1.22-0.117"/>
</g>
<g>
	<g>
		<defs>
			<rect id="SVGID_11_" width="175.447" height="10.271"/>
		</defs>
		<clipPath id="SVGID_12_">
			<use xlink:href="#SVGID_11_"  overflow="visible"/>
		</clipPath>
		<path clip-path="url(#SVGID_12_)" fill="#FFFFFF" d="M21.167,2.29c0-0.2-0.122-0.354-0.282-0.354H19.86
			c-0.157,0-0.28,0.153-0.28,0.354v3.287c0,1.948,0.864,2.76,2.086,2.76c0.705,0,1.173-0.377,1.605-0.834v0.362
			c0,0.199,0.124,0.354,0.282,0.354h1.024c0.16,0,0.284-0.15,0.284-0.354V2.29c0-0.2-0.123-0.354-0.284-0.354h-1.024
			c-0.158,0-0.28,0.153-0.28,0.354v3.84c-0.34,0.423-0.772,0.819-1.232,0.819c-0.516,0-0.873-0.396-0.873-1.373L21.167,2.29
			L21.167,2.29z"/>
	</g>
</g>
<g>
	<g>
		<defs>
			<rect id="SVGID_13_" width="175.447" height="10.271"/>
		</defs>
		<clipPath id="SVGID_14_">
			<use xlink:href="#SVGID_13_"  overflow="visible"/>
		</clipPath>
		<path clip-path="url(#SVGID_14_)" fill="#FFFFFF" d="M31.13,6.482c0-2.397-3.464-1.834-3.464-2.807c0-0.33,0.263-0.553,0.91-0.553
			c0.404,0,0.75,0.14,0.91,0.388c0.125,0.188,0.293,0.305,0.527,0.305H30.7c0.16,0,0.282-0.152,0.282-0.352
			c0-1.22-0.977-1.643-2.516-1.643c-1.325,0-2.385,0.528-2.385,1.855c0,2.37,3.464,1.83,3.464,2.807c0,0.326-0.262,0.549-1.05,0.549
			c-0.405,0-0.75-0.139-0.912-0.385c-0.123-0.188-0.292-0.308-0.526-0.308h-0.685c-0.157,0-0.282,0.149-0.282,0.353
			c0,1.221,0.978,1.643,2.518,1.643c1.464,0,2.525-0.525,2.525-1.854"/>
	</g>
</g>
<g>
	<g>
		<defs>
			<rect id="SVGID_15_" width="175.447" height="10.271"/>
		</defs>
		<clipPath id="SVGID_16_">
			<use xlink:href="#SVGID_15_"  overflow="visible"/>
		</clipPath>
		<path clip-path="url(#SVGID_16_)" fill="#FFFFFF" d="M41.104,7.865V0.352c0-0.2-0.12-0.352-0.28-0.352H39.8
			c-0.162,0-0.282,0.152-0.282,0.352v1.762c-0.385-0.152-0.76-0.294-1.325-0.294c-1.465,0-2.46,1.103-2.46,3.264
			c0,2.148,0.988,3.252,2.32,3.252c0.666,0,1.183-0.27,1.606-0.646v0.176c0,0.197,0.12,0.354,0.28,0.354h0.884
			C40.983,8.219,41.103,8.064,41.104,7.865 M39.52,6.434c-0.33,0.26-0.752,0.521-1.09,0.521c-0.752,0-1.063-0.577-1.063-1.87
			c0-1.303,0.31-1.878,1.156-1.878c0.237,0,0.61,0.082,0.996,0.235v2.995L39.52,6.434z"/>
	</g>
</g>
<g>
	<g>
		<defs>
			<rect id="SVGID_17_" width="175.447" height="10.271"/>
		</defs>
		<clipPath id="SVGID_18_">
			<use xlink:href="#SVGID_17_"  overflow="visible"/>
		</clipPath>
		<path clip-path="url(#SVGID_18_)" fill="#FFFFFF" d="M43.933,8.217c0.16,0,0.28-0.152,0.28-0.354V2.43c0-0.2-0.12-0.35-0.28-0.35
			H42.91c-0.16,0-0.283,0.15-0.283,0.35v5.435c0,0.199,0.123,0.354,0.283,0.354h1.023V8.217z"/>
	</g>
</g>
<g>
	<g>
		<defs>
			<rect id="SVGID_19_" width="175.447" height="10.271"/>
		</defs>
		<clipPath id="SVGID_20_">
			<use xlink:href="#SVGID_19_"  overflow="visible"/>
		</clipPath>
		<path clip-path="url(#SVGID_20_)" fill="#FFFFFF" d="M49.82,3.676c0.198-0.248,0.328-0.448,0.328-0.835v-0.55
			c0-0.2-0.123-0.353-0.283-0.353h-4.178c-0.16,0-0.282,0.152-0.282,0.353v0.68c0,0.2,0.122,0.353,0.282,0.353h2.46L45.733,6.48
			c-0.197,0.248-0.33,0.449-0.33,0.834v0.551c0,0.199,0.123,0.354,0.283,0.354h4.217c0.16,0,0.28-0.15,0.28-0.354v-0.68
			c0-0.199-0.122-0.354-0.28-0.354H47.32L49.82,3.676z"/>
	</g>
</g>
<g>
	<g>
		<defs>
			<rect id="SVGID_21_" width="175.447" height="10.271"/>
		</defs>
		<clipPath id="SVGID_22_">
			<use xlink:href="#SVGID_21_"  overflow="visible"/>
		</clipPath>
		<path clip-path="url(#SVGID_22_)" fill="#FFFFFF" d="M56.357,7.865V4.32c0-1.796-1.063-2.5-2.414-2.5
			c-1.522,0-2.5,0.422-2.5,1.644c0,0.2,0.124,0.353,0.283,0.353h0.686c0.235,0,0.405-0.118,0.526-0.306
			c0.16-0.246,0.507-0.386,0.893-0.386c0.63,0,0.94,0.282,0.94,1.198h-1.52c-1.23,0-2.17,0.67-2.17,2c0,1.324,0.94,2.017,2.17,2.017
			c0.723,0,1.24-0.271,1.663-0.644V7.87c0,0.196,0.12,0.353,0.28,0.353h0.884C56.235,8.217,56.358,8.064,56.357,7.865 M54.77,6.518
			c-0.328,0.256-0.798,0.516-1.36,0.516c-0.488,0-0.743-0.307-0.743-0.715c0-0.389,0.255-0.694,0.696-0.694h1.408L54.77,6.518
			L54.77,6.518z"/>
	</g>
</g>
<g>
	<g>
		<defs>
			<rect id="SVGID_23_" width="175.447" height="10.271"/>
		</defs>
		<clipPath id="SVGID_24_">
			<use xlink:href="#SVGID_23_"  overflow="visible"/>
		</clipPath>
		<path clip-path="url(#SVGID_24_)" fill="#FFFFFF" d="M59.542,2.43c0-0.198-0.122-0.353-0.282-0.353h-1.024
			c-0.157,0-0.28,0.154-0.28,0.353v5.142c0,1.033-0.33,1.34-0.612,1.34c-0.18,0-0.3-0.083-0.468-0.083h-0.14
			c-0.16,0-0.283,0.149-0.283,0.353v0.619c0,0.18,0.122,0.309,0.282,0.354c0.28,0.08,0.75,0.115,1.033,0.115
			c1.118,0,1.774-0.817,1.774-2.697V2.43z"/>
	</g>
</g>
<g>
	<g>
		<defs>
			<rect id="SVGID_25_" width="175.447" height="10.271"/>
		</defs>
		<clipPath id="SVGID_26_">
			<use xlink:href="#SVGID_25_"  overflow="visible"/>
		</clipPath>
		<path clip-path="url(#SVGID_26_)" fill="#FFFFFF" d="M64.752,7.865c0,0.199,0.123,0.354,0.28,0.354h1.024
			c0.16,0,0.282-0.15,0.282-0.354V4.576c0-1.947-0.863-2.757-2.085-2.757c-0.705,0-1.173,0.375-1.604,0.834V2.29
			c0-0.202-0.125-0.353-0.284-0.353h-1.023c-0.16,0-0.283,0.15-0.283,0.353v5.575c0,0.199,0.122,0.354,0.283,0.354h1.023
			c0.16,0,0.283-0.15,0.283-0.354V4.026c0.335-0.42,0.767-0.82,1.226-0.82c0.518,0,0.876,0.398,0.876,1.37v3.289H64.752z"/>
	</g>
</g>
<g>
	<g>
		<defs>
			<rect id="SVGID_27_" width="175.447" height="10.271"/>
		</defs>
		<clipPath id="SVGID_28_">
			<use xlink:href="#SVGID_27_"  overflow="visible"/>
		</clipPath>
		<path clip-path="url(#SVGID_28_)" fill="#FFFFFF" d="M75.066,2.564c0.025-0.025,0.054-0.037,0.09-0.037h0.64
			c0.032,0,0.06,0.012,0.086,0.037c0.024,0.023,0.035,0.052,0.035,0.086v5.603c0,0.033-0.01,0.062-0.035,0.084
			c-0.025,0.024-0.054,0.037-0.087,0.037h-0.64c-0.036,0-0.064-0.013-0.09-0.037c-0.024-0.022-0.035-0.05-0.035-0.084V2.65
			C75.03,2.616,75.042,2.587,75.066,2.564 M79.65,8.252c0,0.033-0.016,0.063-0.04,0.084c-0.024,0.025-0.053,0.037-0.084,0.037h-0.64
			c-0.035,0-0.063-0.012-0.087-0.037c-0.027-0.02-0.04-0.05-0.04-0.084V2.65c0-0.034,0.013-0.063,0.04-0.086
			c0.022-0.025,0.052-0.037,0.085-0.037h0.624c0.01,0,0.03,0.005,0.053,0.02c0.023,0.014,0.038,0.025,0.043,0.037l2.67,4.051V2.65
			c0-0.034,0.012-0.063,0.038-0.086c0.024-0.025,0.054-0.037,0.086-0.037h0.643c0.032,0,0.06,0.012,0.084,0.037
			c0.025,0.023,0.037,0.052,0.037,0.086v5.603c0,0.033-0.01,0.062-0.037,0.084c-0.023,0.024-0.052,0.037-0.084,0.037h-0.627
			c-0.01,0-0.028-0.006-0.054-0.021c-0.024-0.017-0.04-0.024-0.045-0.037L79.65,4.258V8.252z M87.948,8.338
			c-0.023,0.023-0.05,0.037-0.085,0.037h-0.642c-0.032,0-0.06-0.014-0.083-0.037c-0.024-0.023-0.036-0.053-0.036-0.086v-4.93h-1.486
			c-0.035,0-0.062-0.012-0.09-0.037c-0.023-0.025-0.034-0.052-0.034-0.087V2.65c0-0.034,0.01-0.063,0.035-0.086
			c0.027-0.025,0.054-0.037,0.09-0.037h3.857c0.034,0,0.063,0.012,0.088,0.037C89.587,2.587,89.6,2.616,89.6,2.65v0.548
			c0,0.036-0.013,0.063-0.035,0.087s-0.054,0.037-0.088,0.037h-1.485v4.93c0,0.034-0.01,0.063-0.04,0.086 M91.963,2.564
			c0.021-0.025,0.055-0.037,0.084-0.037h3.492c0.029,0,0.063,0.012,0.086,0.037c0.021,0.023,0.035,0.052,0.035,0.086v0.548
			c0,0.036-0.014,0.063-0.035,0.087c-0.023,0.025-0.057,0.037-0.086,0.037h-2.73v1.71h2.314c0.029,0,0.063,0.013,0.086,0.038
			c0.023,0.024,0.035,0.052,0.035,0.085v0.543c0,0.03-0.01,0.063-0.034,0.084c-0.026,0.026-0.055,0.038-0.086,0.038h-2.313v1.76
			h2.73c0.029,0,0.061,0.01,0.085,0.035c0.022,0.023,0.035,0.054,0.035,0.087V8.25c0,0.035-0.013,0.063-0.035,0.086
			c-0.024,0.023-0.056,0.04-0.086,0.04h-3.492c-0.03,0-0.062-0.017-0.085-0.04c-0.025-0.02-0.04-0.05-0.04-0.086v-5.6
			C91.923,2.616,91.938,2.587,91.963,2.564 M99.083,5.914v2.34c0,0.032-0.013,0.063-0.037,0.085s-0.052,0.036-0.087,0.036h-0.641
			c-0.031,0-0.063-0.014-0.086-0.037c-0.026-0.023-0.039-0.054-0.039-0.087V2.65c0-0.034,0.013-0.063,0.037-0.086
			c0.021-0.025,0.055-0.037,0.086-0.037h2.145c0.28,0,0.53,0.042,0.753,0.127c0.22,0.084,0.413,0.202,0.57,0.353
			c0.159,0.15,0.28,0.332,0.364,0.542c0.086,0.21,0.129,0.438,0.129,0.686c0,0.393-0.105,0.72-0.312,0.977
			c-0.21,0.256-0.493,0.45-0.854,0.577l1.261,2.404c0.024,0.051,0.028,0.091,0.008,0.127c-0.022,0.035-0.063,0.055-0.124,0.055
			H101.5c-0.012,0-0.029-0.008-0.057-0.021c-0.026-0.021-0.043-0.031-0.053-0.043l-1.199-2.396h-1.104L99.083,5.914L99.083,5.914z
			 M99.083,5.154h1.313c0.297,0,0.537-0.08,0.721-0.24c0.186-0.158,0.273-0.38,0.273-0.672c0-0.29-0.09-0.515-0.272-0.677
			c-0.185-0.16-0.425-0.242-0.72-0.242H99.08v1.83L99.083,5.154z M105.779,8.252c0,0.033-0.012,0.063-0.035,0.084
			c-0.023,0.025-0.055,0.037-0.087,0.037h-0.644c-0.029,0-0.063-0.012-0.082-0.037c-0.026-0.02-0.039-0.05-0.039-0.084V2.65
			c0-0.034,0.013-0.063,0.039-0.086c0.021-0.025,0.051-0.037,0.082-0.037h0.627c0.012,0,0.027,0.005,0.053,0.02
			c0.024,0.014,0.041,0.026,0.048,0.038l2.67,4.052V2.65c0-0.034,0.01-0.063,0.037-0.086c0.024-0.025,0.053-0.037,0.084-0.037h0.644
			c0.03,0,0.063,0.012,0.086,0.037c0.024,0.023,0.037,0.052,0.037,0.086v5.603c0,0.033-0.013,0.062-0.037,0.084
			c-0.021,0.024-0.056,0.037-0.086,0.037h-0.626c-0.012,0-0.026-0.006-0.053-0.021c-0.021-0.015-0.04-0.024-0.047-0.037l-2.67-4.061
			L105.779,8.252L105.779,8.252z M112.175,2.564c0.021-0.025,0.054-0.037,0.085-0.037h3.493c0.03,0,0.063,0.012,0.086,0.037
			c0.022,0.023,0.038,0.052,0.038,0.086v0.548c0,0.036-0.016,0.063-0.038,0.087s-0.057,0.037-0.086,0.037h-2.729v1.71h2.312
			c0.03,0,0.06,0.013,0.085,0.038c0.021,0.024,0.037,0.052,0.037,0.085v0.543c0,0.03-0.016,0.063-0.037,0.084
			c-0.023,0.026-0.056,0.038-0.085,0.038h-2.31v1.76h2.728c0.03,0,0.063,0.01,0.086,0.035c0.022,0.023,0.038,0.054,0.038,0.087V8.25
			c0,0.035-0.016,0.063-0.038,0.086s-0.057,0.04-0.086,0.04h-3.493c-0.031,0-0.063-0.017-0.085-0.04
			c-0.022-0.02-0.034-0.05-0.034-0.086v-5.6C112.141,2.616,112.152,2.587,112.175,2.564 M120.35,8.338
			c-0.021,0.023-0.056,0.037-0.084,0.037h-0.643c-0.032,0-0.063-0.014-0.088-0.037c-0.023-0.023-0.037-0.053-0.037-0.086v-4.93
			h-1.487c-0.03,0-0.06-0.012-0.084-0.037c-0.02-0.025-0.036-0.052-0.036-0.087V2.65c0-0.034,0.016-0.063,0.036-0.086
			c0.023-0.025,0.056-0.037,0.084-0.037h3.862c0.032,0,0.063,0.012,0.086,0.037c0.02,0.023,0.037,0.052,0.037,0.086v0.548
			c0,0.036-0.018,0.063-0.037,0.087c-0.021,0.025-0.054,0.037-0.086,0.037h-1.482v4.93C120.391,8.286,120.375,8.314,120.35,8.338
			 M128.496,5.913v2.34c0,0.033-0.01,0.063-0.035,0.086c-0.023,0.022-0.055,0.036-0.088,0.036h-0.641
			c-0.031,0-0.063-0.014-0.09-0.037c-0.02-0.023-0.033-0.054-0.033-0.087V2.65c0-0.034,0.014-0.063,0.035-0.086
			c0.024-0.025,0.058-0.037,0.09-0.037h2.144c0.28,0,0.53,0.042,0.752,0.127c0.224,0.084,0.412,0.202,0.57,0.353
			c0.159,0.15,0.28,0.332,0.362,0.542c0.088,0.21,0.131,0.438,0.131,0.686c0,0.393-0.106,0.72-0.313,0.977
			c-0.21,0.256-0.495,0.45-0.854,0.577l1.261,2.404c0.022,0.051,0.03,0.091,0.008,0.127c-0.022,0.035-0.062,0.055-0.122,0.055
			h-0.758c-0.014,0-0.03-0.008-0.061-0.021c-0.023-0.021-0.043-0.031-0.049-0.043l-1.195-2.396L128.496,5.913L128.496,5.913z
			 M128.496,5.153h1.314c0.297,0,0.535-0.078,0.72-0.238c0.183-0.16,0.272-0.382,0.272-0.673c0-0.29-0.09-0.515-0.273-0.677
			c-0.185-0.16-0.424-0.242-0.721-0.242h-1.313V5.153L128.496,5.153z M133.74,7.764c0.037-0.08,0.094-0.158,0.166-0.229
			c0.074-0.072,0.15-0.133,0.236-0.174c0.08-0.039,0.142-0.043,0.18-0.004c0.093,0.076,0.191,0.143,0.305,0.19
			c0.109,0.052,0.256,0.08,0.441,0.08c0.33,0,0.589-0.101,0.776-0.298c0.188-0.198,0.284-0.486,0.284-0.87V2.65
			c0-0.034,0.012-0.063,0.036-0.086c0.022-0.025,0.05-0.037,0.086-0.037h0.64c0.032,0,0.063,0.012,0.086,0.037
			c0.024,0.023,0.037,0.052,0.037,0.086v3.877c0,0.304-0.051,0.57-0.148,0.81c-0.102,0.24-0.24,0.438-0.422,0.597
			c-0.178,0.16-0.383,0.278-0.615,0.36c-0.237,0.082-0.49,0.125-0.76,0.125c-0.28,0-0.521-0.04-0.73-0.11
			c-0.21-0.068-0.406-0.188-0.593-0.357c-0.046-0.047-0.048-0.11-0.007-0.188 M139.813,2.563c0.024-0.025,0.054-0.037,0.09-0.037
			h3.49c0.029,0,0.062,0.012,0.084,0.037c0.024,0.023,0.037,0.052,0.037,0.086v0.548c0,0.036-0.013,0.063-0.037,0.087
			c-0.022,0.025-0.054,0.037-0.086,0.037h-2.729v1.71h2.31c0.033,0,0.064,0.013,0.088,0.038c0.022,0.024,0.039,0.052,0.039,0.085
			v0.543c0,0.03-0.017,0.063-0.039,0.084c-0.022,0.026-0.055,0.038-0.086,0.038h-2.311v1.76h2.73c0.029,0,0.062,0.01,0.084,0.034
			c0.024,0.023,0.037,0.055,0.037,0.088v0.548c0,0.035-0.013,0.063-0.037,0.086c-0.022,0.022-0.054,0.04-0.086,0.04h-3.49
			c-0.035,0-0.063-0.018-0.09-0.04c-0.021-0.021-0.033-0.05-0.033-0.086v-5.6C139.777,2.615,139.789,2.586,139.813,2.563
			 M147.335,1.941c-0.022-0.01-0.04-0.02-0.05-0.033l-0.855-1.077c-0.043-0.05-0.055-0.094-0.029-0.135
			c0.02-0.04,0.062-0.063,0.119-0.063h0.388c0.013,0,0.026,0.005,0.05,0.017c0.02,0.012,0.04,0.02,0.042,0.025l0.683,0.754
			l0.68-0.753l0.042-0.025c0.02-0.01,0.04-0.017,0.052-0.017h0.386c0.06,0,0.104,0.02,0.125,0.063
			c0.021,0.043,0.011,0.086-0.034,0.135l-0.854,1.076c-0.016,0.01-0.028,0.021-0.053,0.032c-0.02,0.012-0.036,0.017-0.049,0.017
			h-0.59c-0.014,0-0.027-0.006-0.053-0.018 M145.614,7.555c0.042-0.078,0.1-0.154,0.173-0.23c0.074-0.073,0.15-0.133,0.232-0.174
			c0.082-0.043,0.145-0.043,0.184-0.006c0.2,0.185,0.418,0.311,0.646,0.375c0.229,0.067,0.484,0.104,0.766,0.104
			c0.385,0,0.68-0.08,0.892-0.233c0.21-0.158,0.313-0.377,0.313-0.66c0-0.219-0.045-0.387-0.135-0.502
			c-0.094-0.115-0.209-0.199-0.354-0.259c-0.146-0.057-0.313-0.098-0.504-0.117c-0.188-0.02-0.382-0.05-0.582-0.083
			s-0.395-0.082-0.582-0.147c-0.188-0.066-0.359-0.17-0.514-0.313c-0.285-0.268-0.43-0.642-0.43-1.118c0-0.257,0.047-0.49,0.139-0.7
			c0.09-0.206,0.22-0.386,0.386-0.54c0.168-0.154,0.37-0.272,0.616-0.355c0.244-0.083,0.517-0.125,0.816-0.125
			c0.359,0,0.678,0.046,0.949,0.138c0.27,0.088,0.523,0.236,0.768,0.438c0.045,0.04,0.049,0.098,0.015,0.174
			c-0.037,0.076-0.091,0.15-0.155,0.222c-0.07,0.07-0.145,0.127-0.225,0.168c-0.08,0.04-0.141,0.044-0.187,0.01
			c-0.175-0.14-0.36-0.24-0.554-0.295c-0.191-0.056-0.405-0.082-0.639-0.082c-0.348,0-0.609,0.084-0.793,0.258
			c-0.184,0.172-0.273,0.39-0.273,0.653c0,0.195,0.048,0.347,0.137,0.456c0.09,0.105,0.209,0.188,0.359,0.245
			c0.15,0.06,0.32,0.103,0.51,0.133c0.19,0.03,0.383,0.06,0.573,0.094c0.196,0.032,0.385,0.08,0.569,0.14
			c0.19,0.06,0.351,0.152,0.484,0.28c0.16,0.143,0.278,0.313,0.357,0.521c0.076,0.199,0.117,0.43,0.117,0.68
			c0,0.27-0.049,0.51-0.153,0.725s-0.25,0.396-0.438,0.543c-0.186,0.146-0.408,0.258-0.664,0.332
			c-0.258,0.073-0.539,0.11-0.847,0.11c-0.418,0-0.782-0.05-1.098-0.147c-0.314-0.102-0.61-0.273-0.886-0.523
			c-0.033-0.047-0.037-0.11,0.006-0.189 M152.241,2.56c0.022-0.025,0.053-0.037,0.087-0.037h3.486c0.033,0,0.063,0.012,0.088,0.037
			c0.021,0.023,0.037,0.052,0.037,0.086v0.548c0,0.036-0.016,0.063-0.037,0.087c-0.024,0.025-0.055,0.037-0.088,0.037h-2.729v1.71
			h2.312c0.03,0,0.063,0.013,0.084,0.038c0.024,0.024,0.039,0.052,0.039,0.085v0.543c0,0.03-0.015,0.063-0.039,0.084
			c-0.021,0.026-0.054,0.038-0.084,0.038h-2.313v1.76h2.73c0.031,0,0.062,0.01,0.086,0.035c0.021,0.023,0.037,0.054,0.037,0.086
			v0.549c0,0.035-0.016,0.063-0.037,0.086c-0.024,0.023-0.055,0.04-0.088,0.04h-3.487c-0.035,0-0.064-0.017-0.091-0.04
			c-0.022-0.02-0.035-0.051-0.035-0.086v-5.6c0-0.034,0.01-0.063,0.037-0.086 M159.357,8.248c0,0.033-0.014,0.063-0.039,0.084
			c-0.022,0.025-0.055,0.037-0.084,0.037h-0.644c-0.032,0-0.062-0.012-0.086-0.037c-0.022-0.02-0.037-0.051-0.037-0.084V2.65
			c0-0.034,0.015-0.063,0.037-0.086c0.024-0.025,0.054-0.037,0.086-0.037h0.623c0.013,0,0.028,0.005,0.054,0.02
			c0.022,0.014,0.041,0.026,0.045,0.038l2.67,4.052V2.65c0-0.034,0.013-0.063,0.037-0.086c0.023-0.025,0.055-0.037,0.086-0.037
			h0.642c0.032,0,0.062,0.012,0.088,0.037c0.022,0.023,0.038,0.052,0.038,0.086v5.603c0,0.033-0.016,0.062-0.038,0.084
			c-0.026,0.024-0.056,0.037-0.088,0.037h-0.624c-0.01,0-0.03-0.006-0.055-0.021c-0.021-0.017-0.04-0.024-0.043-0.037l-2.67-4.061
			v3.996L159.357,8.248z M165.148,7.76c0.041-0.08,0.095-0.158,0.17-0.23c0.072-0.069,0.149-0.129,0.232-0.172
			c0.083-0.041,0.143-0.043,0.182-0.004c0.095,0.076,0.193,0.143,0.305,0.19c0.109,0.052,0.26,0.08,0.445,0.08
			c0.332,0,0.586-0.101,0.776-0.298c0.188-0.197,0.28-0.486,0.28-0.87V2.65c0-0.034,0.016-0.063,0.037-0.086
			c0.023-0.025,0.052-0.037,0.084-0.037h0.64c0.035,0,0.064,0.012,0.087,0.037c0.027,0.023,0.04,0.052,0.04,0.086v3.877
			c0,0.304-0.05,0.57-0.153,0.81c-0.099,0.24-0.235,0.438-0.416,0.597c-0.178,0.16-0.383,0.278-0.621,0.36
			c-0.232,0.082-0.483,0.125-0.754,0.125c-0.277,0-0.523-0.04-0.73-0.11c-0.21-0.068-0.406-0.188-0.594-0.357
			c-0.044-0.047-0.044-0.11-0.008-0.188 M171.837,7.201l-0.38,1.092c-0.008,0.02-0.02,0.033-0.043,0.057
			c-0.025,0.02-0.05,0.025-0.07,0.025h-0.686c-0.047,0-0.083-0.02-0.104-0.051c-0.02-0.031-0.02-0.069-0.01-0.113l2.057-5.604
			c0.015-0.015,0.026-0.033,0.054-0.052c0.022-0.02,0.045-0.027,0.063-0.027h0.55c0.019,0,0.039,0.007,0.063,0.026
			c0.024,0.019,0.043,0.037,0.056,0.052l2.055,5.604c0.016,0.045,0.016,0.082-0.01,0.114c-0.021,0.029-0.058,0.051-0.105,0.051
			h-0.686c-0.02,0-0.047-0.01-0.067-0.027c-0.021-0.02-0.04-0.039-0.048-0.056l-0.377-1.093h-2.313L171.837,7.201z M173.9,6.443
			l-0.887-2.596l-0.916,2.596H173.9z"/>
	</g>
</g>
</svg>
